<svg width="47" height="75" viewBox="0 0 47 75" fill="none" xmlns="http://www.w3.org/2000/svg">
<path d="M15.4371 7.26923V8.10476C15.4371 18.6904 13.7563 29.2089 10.4575 39.2674L2.67769 62.9896C2.23362 64.3436 2.15117 65.7902 2.43853 67.186L2.47279 67.3524C2.83179 69.0961 3.78385 70.6615 5.16698 71.7823V71.7823C6.53837 72.8936 8.24992 73.5 10.0151 73.5H23.514" stroke="black" stroke-width="3"/>
<path d="M31.5175 7.26923V8.10476C31.5175 18.6904 33.1983 29.2089 36.497 39.2674L44.2769 62.9896C44.721 64.3436 44.8034 65.7902 44.5161 67.186L44.4818 67.3524C44.1228 69.0961 43.1707 70.6615 41.7876 71.7823V71.7823C40.4162 72.8936 38.7047 73.5 36.9395 73.5H23.4406" stroke="black" stroke-width="3"/>
<rect x="11.2832" y="1.5" width="24.4615" height="5.51748" rx="2.75874" stroke="black" stroke-width="3"/>
<path d="M10.4105 68.7273H23.2937H36.5563C37.4625 68.7273 38.3266 68.345 38.9361 67.6746C39.7072 66.8263 39.9686 65.6316 39.622 64.5389L33.7694 46.0853C33.2755 44.5282 32.0858 43.2892 30.5499 42.7327C28.9056 42.137 27.0727 42.3981 25.6602 43.4295L24.1589 44.5257C23.5855 44.9444 22.9517 45.2735 22.2794 45.5018L20.9266 45.9613C19.954 46.2916 18.8881 46.2044 17.9821 45.7204C15.9333 44.6258 13.3938 45.6593 12.6915 47.8735L7.38757 64.5972C7.05158 65.6566 7.29468 66.8145 8.02832 67.6494C8.63043 68.3345 9.4984 68.7273 10.4105 68.7273Z" fill="#EFC91C" stroke="black" stroke-width="3"/>
</svg>
