<svg width="68" height="48" viewBox="0 0 68 48" fill="none" xmlns="http://www.w3.org/2000/svg">
<path d="M7.07685 47.48C5.23685 47.48 4.31685 46.98 4.31685 45.98L4.43685 38.6L4.55685 31.22C4.55685 28.54 4.49685 24.48 4.37685 19.04C4.25685 13.64 4.19685 9.58 4.19685 6.86V6.5C4.19685 5.46 4.29685 4.5 4.49685 3.62C4.73685 2.54 5.37685 2 6.41685 2C9.21685 2 11.4368 2.9 13.0768 4.7C14.7168 6.5 15.5368 8.88 15.5368 11.84C15.5368 13.64 15.0568 15.52 14.0968 17.48C13.1368 19.44 11.9968 20.9 10.6768 21.86C12.9968 23.42 14.6968 25.44 15.7768 27.92C16.8968 30.36 17.4568 33.06 17.4568 36.02C17.4568 37.42 16.9768 39.16 16.0168 41.24C14.8568 43.72 13.2768 45.5 11.2768 46.58C10.0768 47.18 8.75685 47.48 7.31685 47.48H7.07685ZM7.67685 20.96C8.71685 20.72 9.59685 19.86 10.3168 18.38C10.9168 17.26 11.4768 15.9 11.9968 14.3C12.1168 13.86 12.3168 13.3 12.5968 12.62V10.52C12.5968 9.32 12.1568 8.16 11.2768 7.04C10.3968 5.92 9.39685 5.36 8.27685 5.36C7.71685 5.36 7.43685 5.98 7.43685 7.22C7.43685 9.86 7.47685 12.22 7.55685 14.3L7.67685 20.96ZM7.91685 44.36C9.87685 44.08 11.4368 43.18 12.5968 41.66C13.7568 40.14 14.3368 38.32 14.3368 36.2C14.3368 34.36 14.1768 32.68 13.8568 31.16C13.5768 29.6 13.1968 28.42 12.7168 27.62C12.2768 26.86 11.8368 26.22 11.3968 25.7C10.9568 25.18 10.5768 24.84 10.2568 24.68L9.77685 24.5H7.61685C7.81685 29.1 7.91685 35.72 7.91685 44.36ZM30.624 47.6C29.864 47.6 29.124 47.06 28.404 45.98V45.8C28.284 43.68 27.924 41.32 27.324 38.72C26.724 36.12 25.844 32.98 24.684 29.3C23.804 26.54 23.064 24.06 22.464 21.86V45.5C22.464 46.14 22.344 46.62 22.104 46.94C21.904 47.22 21.484 47.36 20.844 47.36C20.364 47.36 19.984 47.22 19.704 46.94C19.424 46.62 19.284 46.22 19.284 45.74V45.26L19.404 27.62C19.484 22.42 19.524 16.56 19.524 10.04V2.66C19.524 2.18 19.624 1.86 19.824 1.7C20.024 1.5 20.444 1.4 21.084 1.4C22.084 1.4 23.004 1.6 23.844 2C24.684 2.36 25.404 2.88 26.004 3.56C27.244 4.96 28.044 6.64 28.404 8.6C28.564 9.4 28.644 10.32 28.644 11.36C28.644 11.96 28.584 12.62 28.464 13.34C28.384 14.06 28.324 14.52 28.284 14.72C28.204 15.12 28.024 15.72 27.744 16.52C27.464 17.32 27.284 17.84 27.204 18.08L26.484 19.76L25.884 21.32C25.924 22.76 26.164 24.58 26.604 26.78C27.084 28.98 27.604 31.02 28.164 32.9C28.564 34.22 29.284 36.42 30.324 39.5L32.064 44.78V44.9C32.064 45.58 32.004 46.16 31.884 46.64C31.764 47.28 31.344 47.6 30.624 47.6ZM22.344 19.16C22.904 18.6 23.584 17.82 24.384 16.82L25.284 11.66C25.324 11.46 25.344 11.18 25.344 10.82C25.344 9.66 25.124 8.32 24.684 6.8C24.444 6.08 24.124 5.48 23.724 5C23.364 4.48 22.984 4.2 22.584 4.16L22.464 10.16C22.344 12.84 22.284 14.92 22.284 16.4C22.284 17.8 22.304 18.72 22.344 19.16Z" fill="black"/>
<path className="logo-accent" d="M56.3394 35C56.8087 35 57.1607 34.912 57.3954 34.736C57.6007 34.56 57.7034 34.2667 57.7034 33.856V28.092C58.0847 27.828 58.8034 27.5933 59.8594 27.388C60.9154 27.1827 61.9127 27.0507 62.8514 26.992C63.1741 27.608 63.4087 28.356 63.5554 29.236L63.7314 30.116C63.7607 30.3213 63.8487 30.776 63.9954 31.48C64.1421 32.184 64.3034 32.8 64.4794 33.328C64.6554 33.8267 64.8314 34.2227 65.0074 34.516C66.1221 34.516 66.7674 34.2227 66.9434 33.636C66.6207 33.1667 66.2541 31.788 65.8434 29.5L64.3914 21.448C63.7461 17.6347 63.1594 14.3787 62.6314 11.68C62.0741 8.98133 61.4874 6.72267 60.8714 4.904C60.1967 2.88 59.5514 1.868 58.9354 1.868C58.3194 1.868 57.8501 1.98533 57.5274 2.22C57.5274 3.39333 57.2487 6.224 56.6914 10.712C56.1047 15.112 55.8114 18.1187 55.8114 19.732C55.8114 21.2867 55.6501 23.516 55.3274 26.42C55.0341 29.3827 54.8874 31.744 54.8874 33.504C54.8874 34.5013 55.3714 35 56.3394 35ZM58.6274 25.54C58.3927 25.54 58.0994 25.496 57.7474 25.408C57.8354 24.1173 57.9821 22.5187 58.1874 20.612C58.8621 13.9827 59.1994 9.92 59.1994 8.424V8.072C59.4927 8.36533 59.9034 9.7 60.4314 12.076C60.9301 14.4227 61.3994 16.9453 61.8394 19.644C62.2794 22.3427 62.5141 24.132 62.5434 25.012C61.3114 25.364 60.0061 25.54 58.6274 25.54Z" fill="black"/>
<path className="logo-accent" d="M40.6606 35C40.1913 35 39.8393 34.912 39.6046 34.736C39.3993 34.56 39.2966 34.2667 39.2966 33.856V28.092C38.9153 27.828 38.1966 27.5933 37.1406 27.388C36.0846 27.1827 35.0873 27.0507 34.1486 26.992C33.8259 27.608 33.5913 28.356 33.4446 29.236L33.2686 30.116C33.2393 30.3213 33.1513 30.776 33.0046 31.48C32.8579 32.184 32.6966 32.8 32.5206 33.328C32.3446 33.8267 32.1686 34.2227 31.9926 34.516C30.8779 34.516 30.2326 34.2227 30.0566 33.636C30.3793 33.1667 30.7459 31.788 31.1566 29.5L32.6086 21.448C33.2539 17.6347 33.8406 14.3787 34.3686 11.68C34.9259 8.98133 35.5126 6.72267 36.1286 4.904C36.8033 2.88 37.4486 1.868 38.0646 1.868C38.6806 1.868 39.1499 1.98533 39.4726 2.22C39.4726 3.39333 39.7513 6.224 40.3086 10.712C40.8953 15.112 41.1886 18.1187 41.1886 19.732C41.1886 21.2867 41.3499 23.516 41.6726 26.42C41.9659 29.3827 42.1126 31.744 42.1126 33.504C42.1126 34.5013 41.6286 35 40.6606 35ZM38.3726 25.54C38.6073 25.54 38.9006 25.496 39.2526 25.408C39.1646 24.1173 39.0179 22.5187 38.8126 20.612C38.1379 13.9827 37.8006 9.92 37.8006 8.424V8.072C37.5073 8.36533 37.0966 9.7 36.5686 12.076C36.0699 14.4227 35.6006 16.9453 35.1606 19.644C34.7206 22.3427 34.4859 24.132 34.4566 25.012C35.6886 25.364 36.9939 25.54 38.3726 25.54Z" fill="black"/>
<path className="logo-accent" d="M49.4126 35.066C47.9092 35.066 46.6656 34.615 45.6816 33.713C44.8889 33.057 44.1646 31.9363 43.5086 30.351C43.0986 29.3123 42.7706 27.85 42.5246 25.964C42.3332 24.4333 42.2376 22.9847 42.2376 21.618C42.2102 21.2627 42.1966 20.6477 42.1966 19.773V18.379V16.739C42.1966 15.5637 42.2376 14.156 42.3196 12.516C42.4289 11.122 42.6476 9.70067 42.9756 8.252C43.3309 6.83067 43.8502 5.628 44.5336 4.644C45.2169 3.60533 46.1326 2.86733 47.2806 2.43C47.9639 2.23867 48.6062 2.143 49.2076 2.143C50.3556 2.143 50.9296 2.52567 50.9296 3.291C50.9296 3.59167 50.8202 3.83767 50.6016 4.029C50.4102 4.193 50.1506 4.275 49.8226 4.275C49.7132 4.275 49.5219 4.234 49.2486 4.152L48.6746 4.07C48.1552 4.07 47.6906 4.234 47.2806 4.562C46.8706 4.86267 46.5289 5.31367 46.2556 5.915C45.6269 7.227 45.2032 8.662 44.9846 10.22C44.6839 12.1333 44.5199 13.8007 44.4926 15.222C44.4379 16.452 44.4106 17.7503 44.4106 19.117V20.224C44.3832 20.6067 44.3696 21.085 44.3696 21.659C44.3696 23.053 44.4379 24.4197 44.5746 25.759C44.6839 27.3443 44.9846 28.711 45.4766 29.859C45.9139 31.1437 46.6246 32.0457 47.6086 32.565C48.0732 32.8383 48.6472 32.975 49.3306 32.975C50.5332 32.975 51.5446 32.401 52.3646 31.253C52.3372 30.2963 52.2689 29.367 52.1596 28.465C52.0502 27.5357 51.8862 26.907 51.6676 26.579C51.6402 26.579 51.5719 26.5927 51.4626 26.62C51.3806 26.62 51.2439 26.6337 51.0526 26.661L50.0686 26.743C49.1392 26.743 48.6746 26.3467 48.6746 25.554C48.6746 25.308 48.8112 25.0893 49.0846 24.898C49.3579 24.7067 49.7269 24.57 50.1916 24.488C50.9569 24.2967 51.6402 24.201 52.2416 24.201C52.7882 24.201 53.2119 24.406 53.5126 24.816C53.8132 25.226 53.9636 25.7453 53.9636 26.374C53.9636 27.276 54.1002 28.506 54.3736 30.064C54.6469 31.5947 54.7836 32.811 54.7836 33.713C54.7836 34.0137 54.6879 34.2733 54.4966 34.492C54.3052 34.7107 54.0729 34.82 53.7996 34.82C53.1162 34.82 52.6516 34.533 52.4056 33.959V33.918L51.5036 34.369C50.6836 34.8337 49.9866 35.066 49.4126 35.066Z" fill="black"/>
<path d="M33.9213 47.09C33.7313 47.09 33.5663 47.065 33.4263 47.015C33.2563 46.965 33.1713 46.825 33.1713 46.595V37.88C33.1713 37.71 33.1413 37.455 33.0813 37.115C33.0113 36.805 32.9763 36.55 32.9763 36.35V36.305C33.1463 36.025 33.2713 35.845 33.3513 35.765C33.4913 35.765 33.6763 35.745 33.9063 35.705C34.1163 35.665 34.3013 35.645 34.4613 35.645C34.6213 35.645 34.7763 35.695 34.9263 35.795C35.0763 35.885 35.1513 35.995 35.1513 36.125C35.1513 36.425 34.9213 36.575 34.4613 36.575H34.2513C34.1913 36.565 34.1213 36.56 34.0413 36.56C33.9513 36.56 33.8963 36.565 33.8763 36.575C33.8763 36.915 33.8963 37.325 33.9363 37.805L33.9663 38.225L33.9963 39.05C33.9963 39.24 33.9813 39.53 33.9513 39.92L33.9213 40.76L34.1313 40.715C34.3313 40.655 34.4963 40.625 34.6263 40.625C34.7363 40.625 34.8363 40.67 34.9263 40.76C35.0163 40.84 35.0613 40.935 35.0613 41.045C35.0613 41.165 35.0213 41.275 34.9413 41.375C34.8713 41.465 34.7813 41.51 34.6713 41.51L34.4913 41.495H34.2963C34.1463 41.495 34.0413 41.53 33.9813 41.6V46.235L34.8213 46.19C35.3913 46.19 35.6763 46.32 35.6763 46.58V46.64C35.6163 46.76 35.5063 46.86 35.3463 46.94C35.1863 47.01 35.0313 47.055 34.8813 47.075L34.3863 47.09H33.9213ZM41.1411 47.21C40.7711 47.21 40.5861 46.83 40.5861 46.07C40.5861 45.59 40.3761 43.875 39.9561 40.925C39.5461 37.965 39.2861 36.35 39.1761 36.08C39.3061 35.84 39.4811 35.72 39.7011 35.72C39.9311 35.72 40.1461 36.24 40.3461 37.28C40.5361 38.38 40.6961 39.64 40.8261 41.06L40.9311 42.275C40.9911 42.955 41.0261 43.3 41.0361 43.31L41.1861 42.05L41.2761 41.27C41.4061 40.13 41.4911 39.325 41.5311 38.855C41.5811 38.235 41.6061 37.81 41.6061 37.58V37.295C41.6061 37.185 41.6461 37.08 41.7261 36.98C41.8061 36.88 41.8961 36.83 41.9961 36.83C42.3561 36.83 42.5361 36.98 42.5361 37.28V37.505C42.5361 38.075 42.5911 38.69 42.7011 39.35C42.8211 40 42.9911 40.78 43.2111 41.69C43.3511 42.22 43.4911 42.865 43.6311 43.625C43.6611 43.295 43.7561 42.495 43.9161 41.225C44.0761 40.065 44.1911 39.08 44.2611 38.27C44.3411 37.45 44.3811 36.685 44.3811 35.975C44.3811 35.745 44.4161 35.585 44.4861 35.495C44.5661 35.395 44.7111 35.345 44.9211 35.345C45.0411 35.345 45.1461 35.385 45.2361 35.465C45.3361 35.535 45.3861 35.63 45.3861 35.75C45.3861 35.86 45.3361 35.975 45.2361 36.095C45.2361 36.815 45.1811 37.66 45.0711 38.63C44.9611 39.59 44.8261 40.505 44.6661 41.375C44.5061 42.225 44.3711 43.14 44.2611 44.12C44.1511 45.09 44.0961 45.945 44.0961 46.685C44.0961 46.845 44.0561 46.97 43.9761 47.06C43.9061 47.16 43.7961 47.21 43.6461 47.21C43.5361 47.21 43.4061 47.005 43.2561 46.595C43.0661 46.025 42.8311 44.89 42.5511 43.19L42.2811 41.435L42.1461 40.46C42.0161 41.37 41.9161 42.105 41.8461 42.665C41.7861 43.215 41.7261 43.87 41.6661 44.63C41.5961 45.36 41.5611 46.08 41.5611 46.79C41.5611 46.89 41.5161 46.985 41.4261 47.075C41.3461 47.165 41.2511 47.21 41.1411 47.21ZM50.3082 47.09C50.1182 47.09 49.9532 47.065 49.8132 47.015C49.6432 46.965 49.5582 46.825 49.5582 46.595V37.88C49.5582 37.71 49.5282 37.455 49.4682 37.115C49.3982 36.805 49.3632 36.55 49.3632 36.35V36.305C49.5332 36.025 49.6582 35.845 49.7382 35.765C49.8782 35.765 50.0632 35.745 50.2932 35.705C50.5032 35.665 50.6882 35.645 50.8482 35.645C51.0082 35.645 51.1632 35.695 51.3132 35.795C51.4632 35.885 51.5382 35.995 51.5382 36.125C51.5382 36.425 51.3082 36.575 50.8482 36.575H50.6382C50.5782 36.565 50.5082 36.56 50.4282 36.56C50.3382 36.56 50.2832 36.565 50.2632 36.575C50.2632 36.915 50.2832 37.325 50.3232 37.805L50.3532 38.225L50.3832 39.05C50.3832 39.24 50.3682 39.53 50.3382 39.92L50.3082 40.76L50.5182 40.715C50.7182 40.655 50.8832 40.625 51.0132 40.625C51.1232 40.625 51.2232 40.67 51.3132 40.76C51.4032 40.84 51.4482 40.935 51.4482 41.045C51.4482 41.165 51.4082 41.275 51.3282 41.375C51.2582 41.465 51.1682 41.51 51.0582 41.51L50.8782 41.495H50.6832C50.5332 41.495 50.4282 41.53 50.3682 41.6V46.235L51.2082 46.19C51.7782 46.19 52.0632 46.32 52.0632 46.58V46.64C52.0032 46.76 51.8932 46.86 51.7332 46.94C51.5732 47.01 51.4182 47.055 51.2682 47.075L50.7732 47.09H50.3082ZM58.803 47.15C58.613 47.15 58.428 47.015 58.248 46.745V46.7C58.218 46.17 58.128 45.58 57.978 44.93C57.828 44.28 57.608 43.495 57.318 42.575C57.098 41.885 56.913 41.265 56.763 40.715V46.625C56.763 46.785 56.733 46.905 56.673 46.985C56.623 47.055 56.518 47.09 56.358 47.09C56.238 47.09 56.143 47.055 56.073 46.985C56.003 46.905 55.968 46.805 55.968 46.685V46.565L55.998 42.155C56.018 40.855 56.028 39.39 56.028 37.76V35.915C56.028 35.795 56.053 35.715 56.103 35.675C56.153 35.625 56.258 35.6 56.418 35.6C56.668 35.6 56.898 35.65 57.108 35.75C57.318 35.84 57.498 35.97 57.648 36.14C57.958 36.49 58.158 36.91 58.248 37.4C58.288 37.6 58.308 37.83 58.308 38.09C58.308 38.24 58.293 38.405 58.263 38.585C58.243 38.765 58.228 38.88 58.218 38.93C58.198 39.03 58.153 39.18 58.083 39.38C58.013 39.58 57.968 39.71 57.948 39.77L57.768 40.19L57.618 40.58C57.628 40.94 57.688 41.395 57.798 41.945C57.918 42.495 58.048 43.005 58.188 43.475C58.288 43.805 58.468 44.355 58.728 45.125L59.163 46.445V46.475C59.163 46.645 59.148 46.79 59.118 46.91C59.088 47.07 58.983 47.15 58.803 47.15ZM56.733 40.04C56.873 39.9 57.043 39.705 57.243 39.455L57.468 38.165C57.478 38.115 57.483 38.045 57.483 37.955C57.483 37.665 57.428 37.33 57.318 36.95C57.258 36.77 57.178 36.62 57.078 36.5C56.988 36.37 56.893 36.3 56.793 36.29L56.763 37.79C56.733 38.46 56.718 38.98 56.718 39.35C56.718 39.7 56.723 39.93 56.733 40.04ZM63.829 47.18C63.729 47.18 63.639 47.145 63.559 47.075C63.489 47.005 63.454 46.92 63.454 46.82L63.484 45.365C63.514 44.715 63.529 44.23 63.529 43.91C63.529 43.62 63.484 43.19 63.394 42.62C63.294 42.06 63.244 41.625 63.244 41.315C63.244 40.935 63.189 40.5 63.079 40.01C62.969 39.52 62.829 39.05 62.659 38.6C62.499 38.17 62.364 37.71 62.254 37.22C62.144 36.72 62.089 36.285 62.089 35.915C62.089 35.845 62.129 35.785 62.209 35.735C62.289 35.685 62.374 35.66 62.464 35.66C62.574 35.66 62.679 35.775 62.779 36.005C62.899 36.265 63.014 36.63 63.124 37.1C63.234 37.57 63.299 37.85 63.319 37.94L63.514 38.975L63.664 39.635C63.694 39.475 63.719 39.265 63.739 39.005C63.799 38.175 63.874 37.485 63.964 36.935C64.034 36.555 64.114 36.265 64.204 36.065C64.304 35.845 64.424 35.735 64.564 35.735C64.834 35.735 64.969 35.785 64.969 35.885C64.969 36.455 64.849 37.295 64.609 38.405C64.369 39.515 64.249 40.36 64.249 40.94L64.219 41.18C64.199 41.33 64.194 41.42 64.204 41.45V41.69C64.204 42.12 64.219 42.78 64.249 43.67L64.279 45.665L64.309 46.01L64.339 46.37V46.745C64.339 46.865 64.289 46.965 64.189 47.045C64.089 47.135 63.969 47.18 63.829 47.18Z" fill="black"/>
</svg>
