<svg width="38" height="45" viewBox="0 0 38 45" fill="none" xmlns="http://www.w3.org/2000/svg">
  <path id="left-cart-bottle" d="M13.5 2.5L12.9439 3.61214C12.8548 3.79034 12.9844 4 13.1836 4V4C13.3492 4 13.4752 4.14871 13.448 4.31206L13.1876 5.87466M13.5 2.5V2.5C13.0858 2.5 12.75 2.16421 12.75 1.75V1.75C12.75 1.33579 13.0858 1 13.5 1H16.5C16.9142 1 17.25 1.33579 17.25 1.75V1.75C17.25 2.16421 16.9142 2.5 16.5 2.5V2.5M13.5 2.5H16.5M16.5 2.5L17.0561 3.61215C17.1452 3.79034 17.0156 4 16.8164 4V4C16.6508 4 16.5248 4.14871 16.552 4.31206L16.8124 5.87466M19.5 17.5L17.5667 16.05C16.8743 15.5307 16.0321 15.25 15.1667 15.25H14.5897C13.422 15.25 12.3126 15.7603 11.5527 16.6468L10.5 17.875M19.5 17.5V19V20.5V21.25V21.25C19.5 21.6642 19.1642 22 18.75 22H11.25C10.8358 22 10.5 21.6642 10.5 21.25V21.25V17.875M19.5 17.5V16.1569C19.5 15.096 19.0786 14.0786 18.3284 13.3284L18 13V13C17.5198 12.5198 17.25 11.8685 17.25 11.1893V10M10.5 17.875V16.091C10.5 15.0723 10.9047 14.0953 11.625 13.375V13.375C12.3453 12.6547 12.75 11.6777 12.75 10.659V10M17.25 10V8.83105C17.25 8.61073 17.2318 8.39078 17.1956 8.17345L16.8124 5.87466M17.25 10L16.2649 10.3284C15.4438 10.6021 14.5562 10.6021 13.7351 10.3284L12.75 10M12.75 10V8.58166C12.75 8.52731 12.7545 8.47306 12.7634 8.41945V8.41945L13.1876 5.87466M13.1876 5.87466H16.8124M12.5 19H17.25M12 20.5H17.5" stroke="black" stroke-linecap="round"/>
  <path id="right-cart-bottle" d="M28 2.5L27.4439 3.61214C27.3548 3.79034 27.4844 4 27.6836 4V4C27.8492 4 27.9752 4.14871 27.948 4.31206L27.6876 5.87466M28 2.5V2.5C27.5858 2.5 27.25 2.16421 27.25 1.75V1.75C27.25 1.33579 27.5858 1 28 1H31C31.4142 1 31.75 1.33579 31.75 1.75V1.75C31.75 2.16421 31.4142 2.5 31 2.5V2.5M28 2.5H31M31 2.5L31.5561 3.61215C31.6452 3.79034 31.5156 4 31.3164 4V4C31.1508 4 31.0248 4.14871 31.052 4.31206L31.3124 5.87466M34 17.5L32.0667 16.05C31.3743 15.5307 30.5321 15.25 29.6667 15.25H29.0897C27.922 15.25 26.8126 15.7603 26.0527 16.6468L25 17.875M34 17.5V19V20.5V21.25V21.25C34 21.6642 33.6642 22 33.25 22H25.75C25.3358 22 25 21.6642 25 21.25V21.25V17.875M34 17.5V16.1569C34 15.096 33.5786 14.0786 32.8284 13.3284L32.5 13V13C32.0198 12.5198 31.75 11.8685 31.75 11.1893V10M25 17.875V16.091C25 15.0723 25.4047 14.0953 26.125 13.375V13.375C26.8453 12.6547 27.25 11.6777 27.25 10.659V10M31.75 10V8.83105C31.75 8.61073 31.7318 8.39078 31.6956 8.17345L31.3124 5.87466M31.75 10L30.7649 10.3284C29.9438 10.6021 29.0562 10.6021 28.2351 10.3284L27.25 10M27.25 10V8.58166C27.25 8.52731 27.2545 8.47306 27.2634 8.41945V8.41945L27.6876 5.87466M27.6876 5.87466H31.3124M27 19H31.75M26.5 20.5H32" stroke="black" stroke-linecap="round"/>
  <path id="middle-cart-bottle-bg" d="M23.9615 4L24.5575 5.10682C24.6532 5.28452 24.5245 5.5 24.3227 5.5C24.1432 5.5 24.015 5.67365 24.0677 5.84517L24.6538 7.75L25.4 10.1751C25.5173 10.5562 25.5769 10.9527 25.5769 11.3515V12.25V13.5967C25.5769 14.651 26.0159 15.6576 26.7885 16.375C27.561 17.0924 28 18.099 28 19.1533V21.25C28 21.6642 27.6642 22 27.25 22H18.25C17.8358 22 17.5 21.6642 17.5 21.25V18.7872C17.5 17.9502 17.7626 17.1343 18.2507 16.4544L18.3647 16.2956C18.8528 15.6157 19.1154 14.7998 19.1154 13.9628V12.25V11.3515C19.1154 10.9527 19.175 10.5562 19.2923 10.1751L20.0385 7.75L20.6246 5.84517C20.6773 5.67365 20.5491 5.5 20.3696 5.5C20.1678 5.5 20.0391 5.28452 20.1348 5.10682L20.7308 4H20.6731C20.2589 4 19.9231 3.66421 19.9231 3.25C19.9231 2.83579 20.2589 2.5 20.6731 2.5H24.0192C24.4334 2.5 24.7692 2.83579 24.7692 3.25C24.7692 3.66421 24.4334 4 24.0192 4H23.9615Z" fill="#d6d6d6"/>
  <path id="middle-cart-bottle" d="M28 21.25L26.4424 19.3216C25.8816 18.6272 25.1046 18.1404 24.2352 17.9385L23.2507 17.71C22.6556 17.5718 22.0367 17.5718 21.4416 17.71L20.8759 17.8413C19.7567 18.1011 18.8033 18.8297 18.2585 19.8413L17.5 21.25M28 21.25V21.25C28 21.6642 27.6642 22 27.25 22H18.25C17.8358 22 17.5 21.6642 17.5 21.25V21.25M28 21.25V19.1533C28 18.099 27.561 17.0924 26.7885 16.375V16.375C26.0159 15.6576 25.5769 14.651 25.5769 13.5967V12.25M23.9615 4L24.5575 5.10682C24.6532 5.28452 24.5245 5.5 24.3227 5.5V5.5C24.1432 5.5 24.015 5.67365 24.0677 5.84517L24.6538 7.75M23.9615 4H24.0192C24.4334 4 24.7692 3.66421 24.7692 3.25V3.25C24.7692 2.83579 24.4334 2.5 24.0192 2.5H20.6731C20.2589 2.5 19.9231 2.83579 19.9231 3.25V3.25C19.9231 3.66421 20.2589 4 20.6731 4H20.7308M23.9615 4H20.7308M20.7308 4L20.1348 5.10682C20.0391 5.28452 20.1678 5.5 20.3696 5.5V5.5C20.5491 5.5 20.6773 5.67365 20.6246 5.84517L20.0385 7.75M17.5 21.25V18.7872C17.5 17.9502 17.7626 17.1343 18.2507 16.4544L18.3647 16.2956C18.8528 15.6157 19.1154 14.7998 19.1154 13.9628V12.25M25.5769 12.25V11.3515C25.5769 10.9527 25.5173 10.5562 25.4 10.1751L24.6538 7.75M25.5769 12.25L24.0306 12.9679C22.9624 13.4639 21.7299 13.4639 20.6617 12.9679L19.1154 12.25M19.1154 12.25V11.3515C19.1154 10.9527 19.175 10.5562 19.2923 10.1751L20.0385 7.75M20.0385 7.75H24.6538" stroke="black"/>
  <path d="M1 16.5H1.55715C2.97973 16.5 4.20671 17.4991 4.49493 18.8922L8.00507 35.8578C8.29329 37.2509 9.52027 38.25 10.9428 38.25H31.75" stroke="black" stroke-linecap="round"/>
  <path d="M36.2703 21H7.60605C7.2918 21 7.05545 21.2865 7.11516 21.595L9.92162 36.095C9.96713 36.3302 10.173 36.5 10.4125 36.5H30.6574C30.8639 36.5 31.0491 36.3731 31.1237 36.1805L36.7366 21.6805C36.8634 21.3528 36.6216 21 36.2703 21Z" fill="#d6d6d6" stroke="black" stroke-linecap="round"/>
  <circle cx="13.75" cy="42.75" r="1.75" stroke="black"/>
  <circle cx="27.25" cy="42.75" r="1.75" stroke="black"/>
  </svg>
