<svg width="40" height="40" viewBox="0 0 40 40" fill="black" xmlns="http://www.w3.org/2000/svg">
  <path id="filling" d="M14.5 17.5L22 8.5L24.5 10.5L22 16H27L30 18L31.5 21L27 30H10L9.5 17.5H14.5Z" stroke="black"/>
  <path fill-rule="evenodd" clip-rule="evenodd" d="M25.0835 11.7403C25.7788 9.65423 24.2262 7.5 22.0272 7.5C20.9868 7.5 20.0103 8.00245 19.4057 8.84907L14.1192 16.25H9.76245L8.51245 17.5V30L9.76245 31.25H28.0352L31.8745 23.5713C33.0147 21.2912 32.5677 18.5373 30.7652 16.7347C29.6543 15.624 28.148 15 26.5771 15H23.9968L25.0835 11.7403ZM16.0125 17.9007L21.44 10.3022C21.5755 10.1126 21.7942 10 22.0272 10C22.5197 10 22.8675 10.4825 22.7117 10.9497L20.5283 17.5H26.5771C27.485 17.5 28.3555 17.8607 28.9973 18.5025C30.0391 19.5442 30.2973 21.1357 29.6385 22.4533L26.4902 28.75H16.0125V17.9007ZM13.5125 28.75H11.0125V18.75H13.5125V28.75Z" fill="black"/>
</svg>
