<svg width="40" height="40" viewBox="0 0 40 40" fill="none" xmlns="http://www.w3.org/2000/svg">
  <path fill-rule="evenodd" clip-rule="evenodd" d="M25.0867 11.7403C25.782 9.65423 24.2293 7.5 22.0303 7.5C20.99 7.5 20.0135 8.00245 19.4088 8.84907L14.1224 16.25H9.76562L8.51562 17.5V30L9.76562 31.25H28.0383L31.8777 23.5713C33.0178 21.2912 32.5708 18.5373 30.7683 16.7347C29.6575 15.624 28.1512 15 26.5803 15H24L25.0867 11.7403ZM16.0157 17.9007L21.4432 10.3022C21.5787 10.1126 21.7973 10 22.0303 10C22.5228 10 22.8707 10.4825 22.7148 10.9497L20.5315 17.5H26.5803C27.4882 17.5 28.3587 17.8607 29.0005 18.5025C30.0423 19.5442 30.3005 21.1357 29.6417 22.4533L26.4933 28.75H16.0157V17.9007ZM13.5157 28.75H11.0156V18.75H13.5157V28.75Z" fill="#080341"/>
  </svg>
