<svg width="40" height="40" viewBox="0 0 40 40" fill="none" xmlns="http://www.w3.org/2000/svg">
<g clip-path="url(#clip0_165_23)">
<path fill-rule="evenodd" clip-rule="evenodd" d="M38.8412 5.54117L35.2438 1.95364C34.2513 0.962393 32.64 0.962393 31.6462 1.95364L26.25 9.12867C25.4263 10.3424 25.2575 11.7249 26.25 12.7162L28.4525 14.9124C26.82 17.0999 24.86 19.4849 22.6537 21.6849C20.1587 24.1724 17.3838 26.4337 14.8888 28.2912L12.76 26.1699C11.7675 25.1787 10.3812 25.3462 9.16249 26.1699L1.96751 31.5512C0.76126 32.3824 0.97376 34.1474 1.96751 35.1386L5.565 38.7249C7.5525 40.7074 10.1363 40.0724 12.76 38.7249C12.76 38.7249 20.7013 34.2799 27.5 27.4999C33.895 21.1224 38.8412 12.7162 38.8412 12.7162C39.8725 9.88741 40.8287 7.52242 38.8412 5.54117Z" fill="currentColor"/>
</g>
<defs>
<clipPath id="clip0_165_23">
<rect width="40" height="40" fill="white"/>
</clipPath>
</defs>
</svg>
