<svg width="29" height="45" viewBox="0 0 29 44" fill="none" xmlns="http://www.w3.org/2000/svg">
  <rect x="2.5" y="13.6379" width="24" height="28" stroke="black" stroke-width="5"/>
  <path d="M8 12.1379V9.13794C8 5.82423 10.6863 3.13794 14 3.13794V3.13794V3.13794C17.3137 3.13794 20 5.82423 20 9.13794V12.1379" stroke="black" stroke-width="5"/>
  <path d="M18.1588 22.4531L14.0831 27.2355C13.9063 27.443 13.9283 27.7538 14.1325 27.9344L16.3304 29.8779" stroke="black" stroke-width="2" stroke-linecap="round"/>
  <path d="M13.3846 18.0098L16.6652 20.4507C16.7761 20.5332 16.7719 20.7005 16.657 20.7774L13.0128 23.2149" stroke="black" stroke-width="2.5" stroke-linecap="round"/>
  <path d="M20.2243 23.6402C20.6242 23.3755 21.1675 23.4833 21.3884 23.909C22.1335 25.3448 22.4392 26.9759 22.2558 28.5961C22.0398 30.5052 21.1586 32.2773 19.7668 33.6018C18.375 34.9262 16.5614 35.7185 14.6439 35.8396C12.7265 35.9608 10.8276 35.4031 9.28016 34.2643C7.73274 33.1256 6.63555 31.4784 6.18097 29.6117C5.72639 27.745 5.94343 25.7778 6.79404 24.0551C7.64464 22.3324 9.07453 20.9641 10.833 20.1901C12.3254 19.5332 13.9736 19.3399 15.566 19.6243C16.0381 19.7086 16.3027 20.1953 16.1688 20.6558V20.6558C16.035 21.1163 15.5531 21.3749 15.0788 21.3041C13.8814 21.1255 12.6514 21.2871 11.5326 21.7796C10.1475 22.3892 9.02125 23.467 8.35124 24.824C7.68124 26.1809 7.51028 27.7304 7.86834 29.2008C8.2264 30.6712 9.09063 31.9686 10.3095 32.8656C11.5284 33.7625 13.0241 34.2018 14.5344 34.1064C16.0448 34.011 17.4733 33.3869 18.5696 32.3437C19.6659 31.3005 20.36 29.9046 20.5302 28.4009C20.6676 27.1862 20.4562 25.9639 19.9295 24.8737C19.7209 24.4419 19.8244 23.905 20.2243 23.6402V23.6402Z" fill="black"/>
  </svg>
