<svg width="30" height="35" viewBox="0 0 30 35" fill="none" xmlns="http://www.w3.org/2000/svg">
  <path d="M26.1758 34H3.82422C3.09686 34 2.4101 33.6647 1.96271 33.0912C1.3792 32.3432 1.30008 31.3186 1.76185 30.4899L2.03829 29.9938C2.44454 29.2647 3.1182 28.722 3.91705 28.4803L10.105 26.6077C13.5641 25.561 17.2605 25.5967 20.6987 26.7102L26.112 28.4632C26.8938 28.7164 27.5507 29.2562 27.9507 29.974L28.2381 30.4899C28.6999 31.3186 28.6208 32.3432 28.0373 33.0912C27.5899 33.6647 26.9031 34 26.1758 34Z" stroke="black"/>
  <path id="user-head" d="M23.5 12C23.5 15.216 22.5217 18.1083 20.964 20.1853C19.4063 22.2621 17.2926 23.5 15 23.5C12.7074 23.5 10.5937 22.2621 9.03604 20.1853C7.47828 18.1083 6.5 15.216 6.5 12C6.5 8.78402 7.47828 5.89173 9.03604 3.81472C10.5937 1.73786 12.7074 0.5 15 0.5C17.2926 0.5 19.4063 1.73786 20.964 3.81472C22.5217 5.89173 23.5 8.78402 23.5 12Z" stroke="black"/>
</svg>
