<svg width="317" height="522" viewBox="0 0 317 522" fill="none" xmlns="http://www.w3.org/2000/svg">
<path d="M102.603 50.6367V151.789C102.603 162.374 100.922 172.893 97.6231 182.951L13.7208 438.785C10.6274 448.217 10.0531 458.294 12.0548 468.017L12.2935 469.176C14.7942 481.323 21.4263 492.227 31.0612 500.035V500.035C40.6143 507.776 52.537 512.001 64.8329 512.001H158.866" stroke="black" stroke-width="20"/>
<path d="M214.619 50.6367V151.789C214.619 162.374 216.3 172.893 219.599 182.951L303.501 438.785C306.595 448.217 307.169 458.294 305.167 468.017L304.928 469.176C302.428 481.323 295.796 492.227 286.161 500.035V500.035C276.608 507.776 264.685 512.001 252.389 512.001H158.355" stroke="black" stroke-width="20"/>
<rect x="73.218" y="10" width="171.297" height="39.3328" rx="19.6664" stroke="black" stroke-width="20"/>
<path d="M67.5877 478.755H157.332H249.72C256.032 478.755 262.051 476.092 266.297 471.421C271.669 465.512 273.489 457.19 271.075 449.578L230.306 321.03C226.865 310.183 218.577 301.553 207.879 297.676C196.424 293.526 183.656 295.346 173.817 302.53L163.359 310.166C159.364 313.083 154.95 315.376 150.267 316.966L140.843 320.167C134.068 322.468 126.642 321.86 120.331 318.488C106.059 310.864 88.3689 318.063 83.4772 333.487L46.5298 449.984C44.1893 457.364 45.8827 465.431 50.9933 471.246C55.1876 476.019 61.2338 478.755 67.5877 478.755Z" fill="#EFC91C" stroke="black" stroke-width="20"/>
</svg>
