<svg width="78" height="47" viewBox="0 0 78 47" fill="none" xmlns="http://www.w3.org/2000/svg">
<path d="M34.712 4.02332V4.28644C34.712 8.745 34.0041 13.1753 32.6147 17.4118L29.4053 27.1979C29.2206 27.7611 29.1863 28.3627 29.3058 28.9432L29.3201 29.0124C29.4694 29.7377 29.8653 30.3887 30.4406 30.8549V30.8549C31.011 31.3171 31.7228 31.5693 32.4569 31.5693H38.0713" stroke="black" stroke-width="1.4"/>
<path d="M41.3999 4.02332V4.28644C41.3999 8.745 42.1078 13.1753 43.4973 17.4118L46.7067 27.1979C46.8914 27.7611 46.9257 28.3627 46.8061 28.9432L46.7919 29.0124C46.6426 29.7377 46.2466 30.3887 45.6714 30.8549V30.8549C45.101 31.3171 44.3891 31.5693 43.655 31.5693H38.0407" stroke="black" stroke-width="1.4"/>
<path d="M32.6214 29.5843H37.9796H43.4956C43.8725 29.5843 44.2319 29.4253 44.4854 29.1465C44.8061 28.7936 44.9148 28.2968 44.7707 27.8423L42.3365 20.1673C42.1311 19.5197 41.6363 19.0044 40.9975 18.7729C40.3136 18.5251 39.5513 18.6338 38.9638 19.0627L38.3394 19.5186C38.1009 19.6928 37.8374 19.8296 37.5577 19.9246L36.9951 20.1157C36.5906 20.2531 36.1472 20.2168 35.7704 20.0155C34.9183 19.5603 33.8621 19.9901 33.57 20.911L31.3641 27.8666C31.2243 28.3072 31.3254 28.7888 31.6306 29.136C31.881 29.4209 32.242 29.5843 32.6214 29.5843Z" fill="#EFC91C" stroke="black" stroke-width="1.4"/>
<rect x="33.0605" y="1.7" width="10.0215" height="2.1425" rx="1.07125" stroke="black" stroke-width="1.4"/>
<path d="M8.11453 46.48C6.27453 46.48 5.35453 45.98 5.35453 44.98L5.47453 37.6L5.59453 30.22C5.59453 27.54 5.53453 23.48 5.41453 18.04C5.29453 12.64 5.23453 8.58 5.23453 5.86V5.5C5.23453 4.46 5.33453 3.5 5.53453 2.62C5.77453 1.54 6.41453 0.999996 7.45453 0.999996C10.2545 0.999996 12.4745 1.9 14.1145 3.7C15.7545 5.5 16.5745 7.88 16.5745 10.84C16.5745 12.64 16.0945 14.52 15.1345 16.48C14.1745 18.44 13.0345 19.9 11.7145 20.86C14.0345 22.42 15.7345 24.44 16.8145 26.92C17.9345 29.36 18.4945 32.06 18.4945 35.02C18.4945 36.42 18.0145 38.16 17.0545 40.24C15.8945 42.72 14.3145 44.5 12.3145 45.58C11.1145 46.18 9.79453 46.48 8.35453 46.48H8.11453ZM8.71453 19.96C9.75453 19.72 10.6345 18.86 11.3545 17.38C11.9545 16.26 12.5145 14.9 13.0345 13.3C13.1545 12.86 13.3545 12.3 13.6345 11.62V9.52C13.6345 8.32 13.1945 7.16 12.3145 6.04C11.4345 4.92 10.4345 4.36 9.31453 4.36C8.75453 4.36 8.47453 4.98 8.47453 6.22C8.47453 8.86 8.51453 11.22 8.59453 13.3L8.71453 19.96ZM8.95453 43.36C10.9145 43.08 12.4745 42.18 13.6345 40.66C14.7945 39.14 15.3745 37.32 15.3745 35.2C15.3745 33.36 15.2145 31.68 14.8945 30.16C14.6145 28.6 14.2345 27.42 13.7545 26.62C13.3145 25.86 12.8745 25.22 12.4345 24.7C11.9945 24.18 11.6145 23.84 11.2945 23.68L10.8145 23.5H8.65453C8.85453 28.1 8.95453 34.72 8.95453 43.36ZM31.6617 46.6C30.9017 46.6 30.1617 46.06 29.4417 44.98V44.8C29.3217 42.68 28.9617 40.32 28.3617 37.72C27.7617 35.12 26.8817 31.98 25.7217 28.3C24.8417 25.54 24.1017 23.06 23.5017 20.86V44.5C23.5017 45.14 23.3817 45.62 23.1417 45.94C22.9417 46.22 22.5217 46.36 21.8817 46.36C21.4017 46.36 21.0217 46.22 20.7417 45.94C20.4617 45.62 20.3217 45.22 20.3217 44.74V44.26L20.4417 26.62C20.5217 21.42 20.5617 15.56 20.5617 9.04V1.66C20.5617 1.18 20.6617 0.859997 20.8617 0.699997C21.0617 0.499997 21.4817 0.399997 22.1217 0.399997C23.1217 0.399997 24.0417 0.599997 24.8817 0.999996C25.7217 1.36 26.4417 1.88 27.0417 2.56C28.2817 3.96 29.0817 5.64 29.4417 7.6C29.6017 8.4 29.6817 9.32 29.6817 10.36C29.6817 10.96 29.6217 11.62 29.5017 12.34C29.4217 13.06 29.3617 13.52 29.3217 13.72C29.2417 14.12 29.0617 14.72 28.7817 15.52C28.5017 16.32 28.3217 16.84 28.2417 17.08L27.5217 18.76L26.9217 20.32C26.9617 21.76 27.2017 23.58 27.6417 25.78C28.1217 27.98 28.6417 30.02 29.2017 31.9C29.6017 33.22 30.3217 35.42 31.3617 38.5L33.1017 43.78V43.9C33.1017 44.58 33.0417 45.16 32.9217 45.64C32.8017 46.28 32.3817 46.6 31.6617 46.6ZM23.3817 18.16C23.9417 17.6 24.6217 16.82 25.4217 15.82L26.3217 10.66C26.3617 10.46 26.3817 10.18 26.3817 9.82C26.3817 8.66 26.1617 7.32 25.7217 5.8C25.4817 5.08 25.1617 4.48 24.7617 4C24.4017 3.48 24.0217 3.2 23.6217 3.16L23.5017 9.16C23.3817 11.84 23.3217 13.92 23.3217 15.4C23.3217 16.8 23.3417 17.72 23.3817 18.16Z" fill="black"/>
<path d="M54.0383 33.04C52.5716 33.04 51.3583 32.6 50.3983 31.72C49.6249 31.08 48.9183 29.9867 48.2783 28.44C47.8783 27.4267 47.5583 26 47.3183 24.16C47.1316 22.6667 47.0383 21.2533 47.0383 19.92C47.0116 19.5733 46.9983 18.9733 46.9983 18.12V16.76V15.16C46.9983 14.0133 47.0383 12.64 47.1183 11.04C47.2249 9.68 47.4383 8.29333 47.7583 6.88C48.1049 5.49333 48.6116 4.32 49.2783 3.36C49.9449 2.34667 50.8383 1.62667 51.9583 1.2C52.6249 1.01333 53.2516 0.92 53.8383 0.92C54.9583 0.92 55.5183 1.29333 55.5183 2.04C55.5183 2.33333 55.4116 2.57333 55.1983 2.76C55.0116 2.92 54.7583 3 54.4383 3C54.3316 3 54.1449 2.96 53.8783 2.88L53.3183 2.8C52.8116 2.8 52.3583 2.96 51.9583 3.28C51.5583 3.57333 51.2249 4.01333 50.9583 4.6C50.3449 5.88 49.9316 7.28 49.7183 8.8C49.4249 10.6667 49.2649 12.2933 49.2383 13.68C49.1849 14.88 49.1583 16.1467 49.1583 17.48V18.56C49.1316 18.9333 49.1183 19.4 49.1183 19.96C49.1183 21.32 49.1849 22.6533 49.3183 23.96C49.4249 25.5067 49.7183 26.84 50.1983 27.96C50.6249 29.2133 51.3183 30.0933 52.2783 30.6C52.7316 30.8667 53.2916 31 53.9583 31C55.1316 31 56.1183 30.44 56.9183 29.32C56.8916 28.3867 56.8249 27.48 56.7183 26.6C56.6116 25.6933 56.4516 25.08 56.2383 24.76C56.2116 24.76 56.1449 24.7733 56.0383 24.8C55.9583 24.8 55.8249 24.8133 55.6383 24.84L54.6783 24.92C53.7716 24.92 53.3183 24.5333 53.3183 23.76C53.3183 23.52 53.4516 23.3067 53.7183 23.12C53.9849 22.9333 54.3449 22.8 54.7983 22.72C55.5449 22.5333 56.2116 22.44 56.7983 22.44C57.3316 22.44 57.7449 22.64 58.0383 23.04C58.3316 23.44 58.4783 23.9467 58.4783 24.56C58.4783 25.44 58.6116 26.64 58.8783 28.16C59.1449 29.6533 59.2783 30.84 59.2783 31.72C59.2783 32.0133 59.1849 32.2667 58.9983 32.48C58.8116 32.6933 58.5849 32.8 58.3183 32.8C57.6516 32.8 57.1983 32.52 56.9583 31.96V31.92L56.0783 32.36C55.2783 32.8133 54.5983 33.04 54.0383 33.04ZM69.602 32C69.1754 32 68.8554 31.92 68.642 31.76C68.4554 31.6 68.362 31.3333 68.362 30.96V25.72C68.0154 25.48 67.362 25.2667 66.402 25.08C65.442 24.8933 64.5354 24.7733 63.682 24.72C63.3887 25.28 63.1754 25.96 63.042 26.76L62.882 27.56C62.8554 27.7467 62.7754 28.16 62.642 28.8C62.5087 29.44 62.362 30 62.202 30.48C62.042 30.9333 61.882 31.2933 61.722 31.56C60.7087 31.56 60.122 31.2933 59.962 30.76C60.2554 30.3333 60.5887 29.08 60.962 27L62.282 19.68C62.8687 16.2133 63.402 13.2533 63.882 10.8C64.3887 8.34667 64.922 6.29333 65.482 4.64C66.0954 2.8 66.682 1.88 67.242 1.88C67.802 1.88 68.2287 1.98667 68.522 2.2C68.522 3.26666 68.7754 5.84 69.282 9.92C69.8154 13.92 70.082 16.6533 70.082 18.12C70.082 19.5333 70.2287 21.56 70.522 24.2C70.7887 26.8933 70.922 29.04 70.922 30.64C70.922 31.5467 70.482 32 69.602 32ZM67.522 23.4C67.7354 23.4 68.002 23.36 68.322 23.28C68.242 22.1067 68.1087 20.6533 67.922 18.92C67.3087 12.8933 67.002 9.2 67.002 7.84V7.52C66.7354 7.78666 66.362 9 65.882 11.16C65.4287 13.2933 65.002 15.5867 64.602 18.04C64.202 20.4933 63.9887 22.12 63.962 22.92C65.082 23.24 66.2687 23.4 67.522 23.4Z" fill="black"/>
<mask id="path-7-outside-1_118_4" maskUnits="userSpaceOnUse" x="34" y="38" width="37" height="9" fill="black">
<rect fill="white" x="34" y="38" width="37" height="9"/>
<path d="M35.4475 46.06C35.3209 46.06 35.2109 46.0433 35.1175 46.01C35.0042 45.9767 34.9475 45.8833 34.9475 45.73V39.92C34.9475 39.8067 34.9275 39.6367 34.8875 39.41C34.8409 39.2033 34.8175 39.0333 34.8175 38.9V38.87C34.9309 38.6833 35.0142 38.5633 35.0675 38.51C35.1609 38.51 35.2842 38.4967 35.4375 38.47C35.5775 38.4433 35.7009 38.43 35.8075 38.43C35.9142 38.43 36.0175 38.4633 36.1175 38.53C36.2175 38.59 36.2675 38.6633 36.2675 38.75C36.2675 38.95 36.1142 39.05 35.8075 39.05H35.6675C35.6275 39.0433 35.5809 39.04 35.5275 39.04C35.4675 39.04 35.4309 39.0433 35.4175 39.05C35.4175 39.2767 35.4309 39.55 35.4575 39.87L35.4775 40.15L35.4975 40.7C35.4975 40.8267 35.4875 41.02 35.4675 41.28L35.4475 41.84L35.5875 41.81C35.7209 41.77 35.8309 41.75 35.9175 41.75C35.9909 41.75 36.0575 41.78 36.1175 41.84C36.1775 41.8933 36.2075 41.9567 36.2075 42.03C36.2075 42.11 36.1809 42.1833 36.1275 42.25C36.0809 42.31 36.0209 42.34 35.9475 42.34L35.8275 42.33H35.6975C35.5975 42.33 35.5275 42.3533 35.4875 42.4V45.49L36.0475 45.46C36.4275 45.46 36.6175 45.5467 36.6175 45.72V45.76C36.5775 45.84 36.5042 45.9067 36.3975 45.96C36.2909 46.0067 36.1875 46.0367 36.0875 46.05L35.7575 46.06H35.4475ZM43.7607 46.14C43.5141 46.14 43.3907 45.8867 43.3907 45.38C43.3907 45.06 43.2507 43.9167 42.9707 41.95C42.6974 39.9767 42.5241 38.9 42.4507 38.72C42.5374 38.56 42.6541 38.48 42.8007 38.48C42.9541 38.48 43.0974 38.8267 43.2307 39.52C43.3574 40.2533 43.4641 41.0933 43.5507 42.04L43.6207 42.85C43.6607 43.3033 43.6841 43.5333 43.6907 43.54L43.7907 42.7L43.8507 42.18C43.9374 41.42 43.9941 40.8833 44.0207 40.57C44.0541 40.1567 44.0707 39.8733 44.0707 39.72V39.53C44.0707 39.4567 44.0974 39.3867 44.1507 39.32C44.2041 39.2533 44.2641 39.22 44.3307 39.22C44.5707 39.22 44.6907 39.32 44.6907 39.52V39.67C44.6907 40.05 44.7274 40.46 44.8007 40.9C44.8807 41.3333 44.9941 41.8533 45.1407 42.46C45.2341 42.8133 45.3274 43.2433 45.4207 43.75C45.4407 43.53 45.5041 42.9967 45.6107 42.15C45.7174 41.3767 45.7941 40.72 45.8407 40.18C45.8941 39.6333 45.9207 39.1233 45.9207 38.65C45.9207 38.4967 45.9441 38.39 45.9907 38.33C46.0441 38.2633 46.1407 38.23 46.2807 38.23C46.3607 38.23 46.4307 38.2567 46.4907 38.31C46.5574 38.3567 46.5907 38.42 46.5907 38.5C46.5907 38.5733 46.5574 38.65 46.4907 38.73C46.4907 39.21 46.4541 39.7733 46.3807 40.42C46.3074 41.06 46.2174 41.67 46.1107 42.25C46.0041 42.8167 45.9141 43.4267 45.8407 44.08C45.7674 44.7267 45.7307 45.2967 45.7307 45.79C45.7307 45.8967 45.7041 45.98 45.6507 46.04C45.6041 46.1067 45.5307 46.14 45.4307 46.14C45.3574 46.14 45.2707 46.0033 45.1707 45.73C45.0441 45.35 44.8874 44.5933 44.7007 43.46L44.5207 42.29L44.4307 41.64C44.3441 42.2467 44.2774 42.7367 44.2307 43.11C44.1907 43.4767 44.1507 43.9133 44.1107 44.42C44.0641 44.9067 44.0407 45.3867 44.0407 45.86C44.0407 45.9267 44.0107 45.99 43.9507 46.05C43.8974 46.11 43.8341 46.14 43.7607 46.14ZM53.3721 46.06C53.2455 46.06 53.1355 46.0433 53.0421 46.01C52.9288 45.9767 52.8721 45.8833 52.8721 45.73V39.92C52.8721 39.8067 52.8521 39.6367 52.8121 39.41C52.7655 39.2033 52.7421 39.0333 52.7421 38.9V38.87C52.8555 38.6833 52.9388 38.5633 52.9921 38.51C53.0855 38.51 53.2088 38.4967 53.3621 38.47C53.5021 38.4433 53.6255 38.43 53.7321 38.43C53.8388 38.43 53.9421 38.4633 54.0421 38.53C54.1421 38.59 54.1921 38.6633 54.1921 38.75C54.1921 38.95 54.0388 39.05 53.7321 39.05H53.5921C53.5521 39.0433 53.5055 39.04 53.4521 39.04C53.3921 39.04 53.3555 39.0433 53.3421 39.05C53.3421 39.2767 53.3555 39.55 53.3821 39.87L53.4021 40.15L53.4221 40.7C53.4221 40.8267 53.4121 41.02 53.3921 41.28L53.3721 41.84L53.5121 41.81C53.6455 41.77 53.7555 41.75 53.8421 41.75C53.9155 41.75 53.9821 41.78 54.0421 41.84C54.1021 41.8933 54.1321 41.9567 54.1321 42.03C54.1321 42.11 54.1055 42.1833 54.0521 42.25C54.0055 42.31 53.9455 42.34 53.8721 42.34L53.7521 42.33H53.6221C53.5221 42.33 53.4521 42.3533 53.4121 42.4V45.49L53.9721 45.46C54.3521 45.46 54.5421 45.5467 54.5421 45.72V45.76C54.5021 45.84 54.4288 45.9067 54.3221 45.96C54.2155 46.0067 54.1121 46.0367 54.0121 46.05L53.6821 46.06H53.3721ZM62.5354 46.1C62.4087 46.1 62.2854 46.01 62.1654 45.83V45.8C62.1454 45.4467 62.0854 45.0533 61.9854 44.62C61.8854 44.1867 61.7387 43.6633 61.5454 43.05C61.3987 42.59 61.2754 42.1767 61.1754 41.81V45.75C61.1754 45.8567 61.1554 45.9367 61.1154 45.99C61.082 46.0367 61.012 46.06 60.9054 46.06C60.8254 46.06 60.762 46.0367 60.7154 45.99C60.6687 45.9367 60.6454 45.87 60.6454 45.79V45.71L60.6654 42.77C60.6787 41.9033 60.6854 40.9267 60.6854 39.84V38.61C60.6854 38.53 60.702 38.4767 60.7354 38.45C60.7687 38.4167 60.8387 38.4 60.9454 38.4C61.112 38.4 61.2654 38.4333 61.4054 38.5C61.5454 38.56 61.6654 38.6467 61.7654 38.76C61.972 38.9933 62.1054 39.2733 62.1654 39.6C62.192 39.7333 62.2054 39.8867 62.2054 40.06C62.2054 40.16 62.1954 40.27 62.1754 40.39C62.162 40.51 62.152 40.5867 62.1454 40.62C62.132 40.6867 62.102 40.7867 62.0554 40.92C62.0087 41.0533 61.9787 41.14 61.9654 41.18L61.8454 41.46L61.7454 41.72C61.752 41.96 61.792 42.2633 61.8654 42.63C61.9454 42.9967 62.032 43.3367 62.1254 43.65C62.192 43.87 62.312 44.2367 62.4854 44.75L62.7754 45.63V45.65C62.7754 45.7633 62.7654 45.86 62.7454 45.94C62.7254 46.0467 62.6554 46.1 62.5354 46.1ZM61.1554 41.36C61.2487 41.2667 61.362 41.1367 61.4954 40.97L61.6454 40.11C61.652 40.0767 61.6554 40.03 61.6554 39.97C61.6554 39.7767 61.6187 39.5533 61.5454 39.3C61.5054 39.18 61.452 39.08 61.3854 39C61.3254 38.9133 61.262 38.8667 61.1954 38.86L61.1754 39.86C61.1554 40.3067 61.1454 40.6533 61.1454 40.9C61.1454 41.1333 61.1487 41.2867 61.1554 41.36ZM69.386 46.12C69.3193 46.12 69.2593 46.0967 69.206 46.05C69.1593 46.0033 69.136 45.9467 69.136 45.88L69.156 44.91C69.176 44.4767 69.186 44.1533 69.186 43.94C69.186 43.7467 69.156 43.46 69.096 43.08C69.0293 42.7067 68.996 42.4167 68.996 42.21C68.996 41.9567 68.9593 41.6667 68.886 41.34C68.8126 41.0133 68.7193 40.7 68.606 40.4C68.4993 40.1133 68.4093 39.8067 68.336 39.48C68.2626 39.1467 68.226 38.8567 68.226 38.61C68.226 38.5633 68.2526 38.5233 68.306 38.49C68.3593 38.4567 68.416 38.44 68.476 38.44C68.5493 38.44 68.6193 38.5167 68.686 38.67C68.766 38.8433 68.8426 39.0867 68.916 39.4C68.9893 39.7133 69.0326 39.9 69.046 39.96L69.176 40.65L69.276 41.09C69.296 40.9833 69.3126 40.8433 69.326 40.67C69.366 40.1167 69.416 39.6567 69.476 39.29C69.5226 39.0367 69.576 38.8433 69.636 38.71C69.7026 38.5633 69.7826 38.49 69.876 38.49C70.056 38.49 70.146 38.5233 70.146 38.59C70.146 38.97 70.066 39.53 69.906 40.27C69.746 41.01 69.666 41.5733 69.666 41.96L69.646 42.12C69.6326 42.22 69.6293 42.28 69.636 42.3V42.46C69.636 42.7467 69.646 43.1867 69.666 43.78L69.686 45.11L69.706 45.34L69.726 45.58V45.83C69.726 45.91 69.6926 45.9767 69.626 46.03C69.5593 46.09 69.4793 46.12 69.386 46.12Z"/>
</mask>
<path d="M35.4475 46.06C35.3209 46.06 35.2109 46.0433 35.1175 46.01C35.0042 45.9767 34.9475 45.8833 34.9475 45.73V39.92C34.9475 39.8067 34.9275 39.6367 34.8875 39.41C34.8409 39.2033 34.8175 39.0333 34.8175 38.9V38.87C34.9309 38.6833 35.0142 38.5633 35.0675 38.51C35.1609 38.51 35.2842 38.4967 35.4375 38.47C35.5775 38.4433 35.7009 38.43 35.8075 38.43C35.9142 38.43 36.0175 38.4633 36.1175 38.53C36.2175 38.59 36.2675 38.6633 36.2675 38.75C36.2675 38.95 36.1142 39.05 35.8075 39.05H35.6675C35.6275 39.0433 35.5809 39.04 35.5275 39.04C35.4675 39.04 35.4309 39.0433 35.4175 39.05C35.4175 39.2767 35.4309 39.55 35.4575 39.87L35.4775 40.15L35.4975 40.7C35.4975 40.8267 35.4875 41.02 35.4675 41.28L35.4475 41.84L35.5875 41.81C35.7209 41.77 35.8309 41.75 35.9175 41.75C35.9909 41.75 36.0575 41.78 36.1175 41.84C36.1775 41.8933 36.2075 41.9567 36.2075 42.03C36.2075 42.11 36.1809 42.1833 36.1275 42.25C36.0809 42.31 36.0209 42.34 35.9475 42.34L35.8275 42.33H35.6975C35.5975 42.33 35.5275 42.3533 35.4875 42.4V45.49L36.0475 45.46C36.4275 45.46 36.6175 45.5467 36.6175 45.72V45.76C36.5775 45.84 36.5042 45.9067 36.3975 45.96C36.2909 46.0067 36.1875 46.0367 36.0875 46.05L35.7575 46.06H35.4475ZM43.7607 46.14C43.5141 46.14 43.3907 45.8867 43.3907 45.38C43.3907 45.06 43.2507 43.9167 42.9707 41.95C42.6974 39.9767 42.5241 38.9 42.4507 38.72C42.5374 38.56 42.6541 38.48 42.8007 38.48C42.9541 38.48 43.0974 38.8267 43.2307 39.52C43.3574 40.2533 43.4641 41.0933 43.5507 42.04L43.6207 42.85C43.6607 43.3033 43.6841 43.5333 43.6907 43.54L43.7907 42.7L43.8507 42.18C43.9374 41.42 43.9941 40.8833 44.0207 40.57C44.0541 40.1567 44.0707 39.8733 44.0707 39.72V39.53C44.0707 39.4567 44.0974 39.3867 44.1507 39.32C44.2041 39.2533 44.2641 39.22 44.3307 39.22C44.5707 39.22 44.6907 39.32 44.6907 39.52V39.67C44.6907 40.05 44.7274 40.46 44.8007 40.9C44.8807 41.3333 44.9941 41.8533 45.1407 42.46C45.2341 42.8133 45.3274 43.2433 45.4207 43.75C45.4407 43.53 45.5041 42.9967 45.6107 42.15C45.7174 41.3767 45.7941 40.72 45.8407 40.18C45.8941 39.6333 45.9207 39.1233 45.9207 38.65C45.9207 38.4967 45.9441 38.39 45.9907 38.33C46.0441 38.2633 46.1407 38.23 46.2807 38.23C46.3607 38.23 46.4307 38.2567 46.4907 38.31C46.5574 38.3567 46.5907 38.42 46.5907 38.5C46.5907 38.5733 46.5574 38.65 46.4907 38.73C46.4907 39.21 46.4541 39.7733 46.3807 40.42C46.3074 41.06 46.2174 41.67 46.1107 42.25C46.0041 42.8167 45.9141 43.4267 45.8407 44.08C45.7674 44.7267 45.7307 45.2967 45.7307 45.79C45.7307 45.8967 45.7041 45.98 45.6507 46.04C45.6041 46.1067 45.5307 46.14 45.4307 46.14C45.3574 46.14 45.2707 46.0033 45.1707 45.73C45.0441 45.35 44.8874 44.5933 44.7007 43.46L44.5207 42.29L44.4307 41.64C44.3441 42.2467 44.2774 42.7367 44.2307 43.11C44.1907 43.4767 44.1507 43.9133 44.1107 44.42C44.0641 44.9067 44.0407 45.3867 44.0407 45.86C44.0407 45.9267 44.0107 45.99 43.9507 46.05C43.8974 46.11 43.8341 46.14 43.7607 46.14ZM53.3721 46.06C53.2455 46.06 53.1355 46.0433 53.0421 46.01C52.9288 45.9767 52.8721 45.8833 52.8721 45.73V39.92C52.8721 39.8067 52.8521 39.6367 52.8121 39.41C52.7655 39.2033 52.7421 39.0333 52.7421 38.9V38.87C52.8555 38.6833 52.9388 38.5633 52.9921 38.51C53.0855 38.51 53.2088 38.4967 53.3621 38.47C53.5021 38.4433 53.6255 38.43 53.7321 38.43C53.8388 38.43 53.9421 38.4633 54.0421 38.53C54.1421 38.59 54.1921 38.6633 54.1921 38.75C54.1921 38.95 54.0388 39.05 53.7321 39.05H53.5921C53.5521 39.0433 53.5055 39.04 53.4521 39.04C53.3921 39.04 53.3555 39.0433 53.3421 39.05C53.3421 39.2767 53.3555 39.55 53.3821 39.87L53.4021 40.15L53.4221 40.7C53.4221 40.8267 53.4121 41.02 53.3921 41.28L53.3721 41.84L53.5121 41.81C53.6455 41.77 53.7555 41.75 53.8421 41.75C53.9155 41.75 53.9821 41.78 54.0421 41.84C54.1021 41.8933 54.1321 41.9567 54.1321 42.03C54.1321 42.11 54.1055 42.1833 54.0521 42.25C54.0055 42.31 53.9455 42.34 53.8721 42.34L53.7521 42.33H53.6221C53.5221 42.33 53.4521 42.3533 53.4121 42.4V45.49L53.9721 45.46C54.3521 45.46 54.5421 45.5467 54.5421 45.72V45.76C54.5021 45.84 54.4288 45.9067 54.3221 45.96C54.2155 46.0067 54.1121 46.0367 54.0121 46.05L53.6821 46.06H53.3721ZM62.5354 46.1C62.4087 46.1 62.2854 46.01 62.1654 45.83V45.8C62.1454 45.4467 62.0854 45.0533 61.9854 44.62C61.8854 44.1867 61.7387 43.6633 61.5454 43.05C61.3987 42.59 61.2754 42.1767 61.1754 41.81V45.75C61.1754 45.8567 61.1554 45.9367 61.1154 45.99C61.082 46.0367 61.012 46.06 60.9054 46.06C60.8254 46.06 60.762 46.0367 60.7154 45.99C60.6687 45.9367 60.6454 45.87 60.6454 45.79V45.71L60.6654 42.77C60.6787 41.9033 60.6854 40.9267 60.6854 39.84V38.61C60.6854 38.53 60.702 38.4767 60.7354 38.45C60.7687 38.4167 60.8387 38.4 60.9454 38.4C61.112 38.4 61.2654 38.4333 61.4054 38.5C61.5454 38.56 61.6654 38.6467 61.7654 38.76C61.972 38.9933 62.1054 39.2733 62.1654 39.6C62.192 39.7333 62.2054 39.8867 62.2054 40.06C62.2054 40.16 62.1954 40.27 62.1754 40.39C62.162 40.51 62.152 40.5867 62.1454 40.62C62.132 40.6867 62.102 40.7867 62.0554 40.92C62.0087 41.0533 61.9787 41.14 61.9654 41.18L61.8454 41.46L61.7454 41.72C61.752 41.96 61.792 42.2633 61.8654 42.63C61.9454 42.9967 62.032 43.3367 62.1254 43.65C62.192 43.87 62.312 44.2367 62.4854 44.75L62.7754 45.63V45.65C62.7754 45.7633 62.7654 45.86 62.7454 45.94C62.7254 46.0467 62.6554 46.1 62.5354 46.1ZM61.1554 41.36C61.2487 41.2667 61.362 41.1367 61.4954 40.97L61.6454 40.11C61.652 40.0767 61.6554 40.03 61.6554 39.97C61.6554 39.7767 61.6187 39.5533 61.5454 39.3C61.5054 39.18 61.452 39.08 61.3854 39C61.3254 38.9133 61.262 38.8667 61.1954 38.86L61.1754 39.86C61.1554 40.3067 61.1454 40.6533 61.1454 40.9C61.1454 41.1333 61.1487 41.2867 61.1554 41.36ZM69.386 46.12C69.3193 46.12 69.2593 46.0967 69.206 46.05C69.1593 46.0033 69.136 45.9467 69.136 45.88L69.156 44.91C69.176 44.4767 69.186 44.1533 69.186 43.94C69.186 43.7467 69.156 43.46 69.096 43.08C69.0293 42.7067 68.996 42.4167 68.996 42.21C68.996 41.9567 68.9593 41.6667 68.886 41.34C68.8126 41.0133 68.7193 40.7 68.606 40.4C68.4993 40.1133 68.4093 39.8067 68.336 39.48C68.2626 39.1467 68.226 38.8567 68.226 38.61C68.226 38.5633 68.2526 38.5233 68.306 38.49C68.3593 38.4567 68.416 38.44 68.476 38.44C68.5493 38.44 68.6193 38.5167 68.686 38.67C68.766 38.8433 68.8426 39.0867 68.916 39.4C68.9893 39.7133 69.0326 39.9 69.046 39.96L69.176 40.65L69.276 41.09C69.296 40.9833 69.3126 40.8433 69.326 40.67C69.366 40.1167 69.416 39.6567 69.476 39.29C69.5226 39.0367 69.576 38.8433 69.636 38.71C69.7026 38.5633 69.7826 38.49 69.876 38.49C70.056 38.49 70.146 38.5233 70.146 38.59C70.146 38.97 70.066 39.53 69.906 40.27C69.746 41.01 69.666 41.5733 69.666 41.96L69.646 42.12C69.6326 42.22 69.6293 42.28 69.636 42.3V42.46C69.636 42.7467 69.646 43.1867 69.666 43.78L69.686 45.11L69.706 45.34L69.726 45.58V45.83C69.726 45.91 69.6926 45.9767 69.626 46.03C69.5593 46.09 69.4793 46.12 69.386 46.12Z" fill="black"/>
<path d="M35.1175 46.01L35.1849 45.8213L35.174 45.8181L35.1175 46.01ZM34.8875 39.41L35.0847 39.3752L35.0826 39.3659L34.8875 39.41ZM34.8175 38.87L34.6466 38.7662L34.6175 38.814V38.87H34.8175ZM35.0675 38.51V38.31H34.9847L34.9261 38.3686L35.0675 38.51ZM35.4375 38.47L35.4718 38.6671L35.475 38.6665L35.4375 38.47ZM36.1175 38.53L36.0065 38.6966L36.0146 38.7015L36.1175 38.53ZM35.6675 39.05L35.6347 39.2473L35.651 39.25H35.6675V39.05ZM35.4175 39.05L35.3281 38.8711L35.2175 38.9264V39.05H35.4175ZM35.4575 39.87L35.657 39.8557L35.6568 39.8534L35.4575 39.87ZM35.4775 40.15L35.6775 40.1427L35.677 40.1358L35.4775 40.15ZM35.4975 40.7H35.6977L35.6974 40.6927L35.4975 40.7ZM35.4675 41.28L35.268 41.2646L35.2677 41.2729L35.4675 41.28ZM35.4475 41.84L35.2477 41.8329L35.2385 42.0893L35.4894 42.0356L35.4475 41.84ZM35.5875 41.81L35.6294 42.0056L35.6373 42.0039L35.645 42.0016L35.5875 41.81ZM36.1175 41.84L35.9759 41.9817L35.9847 41.9895L36.1175 41.84ZM36.1275 42.25L35.9713 42.125L35.9697 42.1272L36.1275 42.25ZM35.9475 42.34L35.9309 42.5393L35.9392 42.54H35.9475V42.34ZM35.8275 42.33L35.8441 42.1307L35.8359 42.13H35.8275V42.33ZM35.4875 42.4L35.3357 42.2698L35.2875 42.326V42.4H35.4875ZM35.4875 45.49H35.2875V45.701L35.4982 45.6897L35.4875 45.49ZM36.0475 45.46V45.2597L36.0368 45.2603L36.0475 45.46ZM36.6175 45.76L36.7964 45.8494L36.8175 45.8072V45.76H36.6175ZM36.3975 45.96L36.4778 46.1435L36.487 46.1389L36.3975 45.96ZM36.0875 46.05L36.0936 46.2499L36.1038 46.2496L36.114 46.2482L36.0875 46.05ZM35.7575 46.06V46.2601L35.7636 46.2599L35.7575 46.06ZM35.4475 45.86C35.3377 45.86 35.2515 45.8455 35.1848 45.8217L35.0503 46.1983C35.1703 46.2412 35.304 46.26 35.4475 46.26V45.86ZM35.174 45.8181C35.1658 45.8157 35.1629 45.8135 35.1627 45.8134C35.1624 45.8132 35.1624 45.8131 35.1623 45.813C35.1622 45.8129 35.1617 45.8124 35.161 45.8112C35.1578 45.806 35.1475 45.7842 35.1475 45.73H34.7475C34.7475 45.8292 34.7656 45.9307 34.8191 46.0188C34.8755 46.1117 34.9609 46.1724 35.0611 46.2019L35.174 45.8181ZM35.1475 45.73V39.92H34.7475V45.73H35.1475ZM35.1475 39.92C35.1475 39.7884 35.1249 39.6042 35.0845 39.3752L34.6906 39.4448C34.7302 39.6691 34.7475 39.8249 34.7475 39.92H35.1475ZM35.0826 39.3659C35.0376 39.1663 35.0175 39.0125 35.0175 38.9H34.6175C34.6175 39.0542 34.6442 39.2403 34.6925 39.4541L35.0826 39.3659ZM35.0175 38.9V38.87H34.6175V38.9H35.0175ZM34.9885 38.9738C35.1037 38.7841 35.1754 38.685 35.209 38.6514L34.9261 38.3686C34.8531 38.4416 34.7581 38.5826 34.6466 38.7662L34.9885 38.9738ZM35.0675 38.71C35.1774 38.71 35.3136 38.6946 35.4718 38.667L35.4033 38.273C35.2548 38.2988 35.1443 38.31 35.0675 38.31V38.71ZM35.475 38.6665C35.6065 38.6414 35.7168 38.63 35.8075 38.63V38.23C35.6849 38.23 35.5486 38.2452 35.4001 38.2735L35.475 38.6665ZM35.8075 38.63C35.8698 38.63 35.9351 38.6488 36.0066 38.6964L36.2285 38.3636C36.0999 38.2779 35.9586 38.23 35.8075 38.23V38.63ZM36.0146 38.7015C36.0473 38.7211 36.0603 38.7361 36.0648 38.7427C36.0677 38.747 36.0675 38.7479 36.0675 38.75H36.4675C36.4675 38.5695 36.3572 38.4406 36.2204 38.3585L36.0146 38.7015ZM36.0675 38.75C36.0675 38.7742 36.063 38.7857 36.0607 38.7902C36.0588 38.794 36.055 38.7998 36.0433 38.8075C36.0144 38.8263 35.9455 38.85 35.8075 38.85V39.25C35.9762 39.25 36.1374 39.2237 36.2618 39.1425C36.401 39.0517 36.4675 38.9102 36.4675 38.75H36.0675ZM35.8075 38.85H35.6675V39.25H35.8075V38.85ZM35.7004 38.8527C35.6468 38.8438 35.5887 38.84 35.5275 38.84V39.24C35.5731 39.24 35.6083 39.2429 35.6347 39.2473L35.7004 38.8527ZM35.5275 38.84C35.4947 38.84 35.4638 38.8409 35.4369 38.8433C35.4198 38.8449 35.3723 38.849 35.3281 38.8711L35.507 39.2289C35.4959 39.2344 35.4868 39.2375 35.4819 39.239C35.4766 39.2406 35.4728 39.2414 35.4711 39.2417C35.4681 39.2423 35.4683 39.2421 35.4731 39.2417C35.4776 39.2413 35.4844 39.2408 35.4938 39.2405C35.5031 39.2402 35.5143 39.24 35.5275 39.24V38.84ZM35.2175 39.05C35.2175 39.284 35.2313 39.5632 35.2582 39.8866L35.6568 39.8534C35.6305 39.5368 35.6175 39.2694 35.6175 39.05H35.2175ZM35.258 39.8842L35.278 40.1642L35.677 40.1358L35.657 39.8558L35.258 39.8842ZM35.2777 40.1573L35.2977 40.7073L35.6974 40.6927L35.6774 40.1427L35.2777 40.1573ZM35.2975 40.7C35.2975 40.8186 35.2881 41.0056 35.2681 41.2647L35.6669 41.2953C35.687 41.0344 35.6975 40.8347 35.6975 40.7H35.2975ZM35.2677 41.2729L35.2477 41.8329L35.6474 41.8471L35.6674 41.2871L35.2677 41.2729ZM35.4894 42.0356L35.6294 42.0056L35.5456 41.6144L35.4056 41.6444L35.4894 42.0356ZM35.645 42.0016C35.7695 41.9642 35.8585 41.95 35.9175 41.95V41.55C35.8033 41.55 35.6722 41.5758 35.5301 41.6184L35.645 42.0016ZM35.9175 41.95C35.9294 41.95 35.9472 41.9526 35.9761 41.9814L36.259 41.6986C36.1678 41.6074 36.0523 41.55 35.9175 41.55V41.95ZM35.9847 41.9895C36.0065 42.0089 36.0075 42.0196 36.0075 42.03H36.4075C36.4075 41.8937 36.3486 41.7778 36.2504 41.6905L35.9847 41.9895ZM36.0075 42.03C36.0075 42.0614 35.9984 42.0913 35.9714 42.1251L36.2837 42.3749C36.3634 42.2754 36.4075 42.1586 36.4075 42.03H36.0075ZM35.9697 42.1272C35.9658 42.1322 35.9628 42.135 35.9611 42.1365C35.9593 42.138 35.9584 42.1385 35.9581 42.1386C35.9578 42.1387 35.9573 42.139 35.9561 42.1393C35.9549 42.1395 35.9522 42.14 35.9475 42.14V42.54C36.0852 42.54 36.2025 42.4794 36.2854 42.3728L35.9697 42.1272ZM35.9641 42.1407L35.8441 42.1307L35.8109 42.5293L35.9309 42.5393L35.9641 42.1407ZM35.8275 42.13H35.6975V42.53H35.8275V42.13ZM35.6975 42.13C35.575 42.13 35.432 42.1574 35.3357 42.2698L35.6394 42.5302C35.6315 42.5394 35.6257 42.5397 35.6333 42.5372C35.6421 42.5343 35.6619 42.53 35.6975 42.53V42.13ZM35.2875 42.4V45.49H35.6875V42.4H35.2875ZM35.4982 45.6897L36.0582 45.6597L36.0368 45.2603L35.4768 45.2903L35.4982 45.6897ZM36.0475 45.66C36.2286 45.66 36.3365 45.6816 36.392 45.707C36.4174 45.7185 36.4221 45.7265 36.4204 45.7243C36.4172 45.7198 36.4175 45.7157 36.4175 45.72H36.8175C36.8175 45.6377 36.7941 45.5577 36.7434 45.4882C36.6943 45.421 36.6277 45.3748 36.558 45.343C36.4236 45.2817 36.2465 45.26 36.0475 45.26V45.66ZM36.4175 45.72V45.76H36.8175V45.72H36.4175ZM36.4387 45.6706C36.4236 45.7007 36.3889 45.7407 36.3081 45.7811L36.487 46.1389C36.6195 46.0726 36.7315 45.9793 36.7964 45.8494L36.4387 45.6706ZM36.3174 45.7768C36.2253 45.8171 36.14 45.8412 36.0611 45.8518L36.114 46.2482C36.2351 46.2321 36.3565 46.1963 36.4777 46.1432L36.3174 45.7768ZM36.0815 45.8501L35.7515 45.8601L35.7636 46.2599L36.0936 46.2499L36.0815 45.8501ZM35.7575 45.86H35.4475V46.26H35.7575V45.86ZM42.9707 41.95L42.7726 41.9774L42.7727 41.9782L42.9707 41.95ZM42.4507 38.72L42.2749 38.6247L42.2298 38.7079L42.2655 38.7955L42.4507 38.72ZM43.2307 39.52L43.4279 39.486L43.4271 39.4822L43.2307 39.52ZM43.5507 42.04L43.75 42.0228L43.7499 42.0218L43.5507 42.04ZM43.6207 42.85L43.4215 42.8672L43.4215 42.8676L43.6207 42.85ZM43.6907 43.54L43.5493 43.6814L43.8406 43.9727L43.8893 43.5636L43.6907 43.54ZM43.7907 42.7L43.9893 42.7236L43.9894 42.7229L43.7907 42.7ZM43.8507 42.18L44.0494 42.2029L44.0495 42.2027L43.8507 42.18ZM44.0207 40.57L44.22 40.587L44.2201 40.5861L44.0207 40.57ZM44.8007 40.9L44.6034 40.9329L44.6041 40.9363L44.8007 40.9ZM45.1407 42.46L44.9463 42.507L44.9474 42.5111L45.1407 42.46ZM45.4207 43.75L45.2241 43.7862L45.6199 43.7681L45.4207 43.75ZM45.6107 42.15L45.4126 42.1227L45.4123 42.125L45.6107 42.15ZM45.8407 40.18L45.6417 40.1606L45.6415 40.1628L45.8407 40.18ZM45.9907 38.33L45.8346 38.205L45.8329 38.2072L45.9907 38.33ZM46.4907 38.31L46.3579 38.4595L46.3665 38.4672L46.376 38.4738L46.4907 38.31ZM46.4907 38.73L46.3371 38.602L46.2907 38.6576V38.73H46.4907ZM46.3807 40.42L46.5794 40.4428L46.5795 40.4425L46.3807 40.42ZM46.1107 42.25L46.3073 42.287L46.3074 42.2862L46.1107 42.25ZM45.8407 44.08L46.0395 44.1025L46.0395 44.1023L45.8407 44.08ZM45.6507 46.04L45.5013 45.9071L45.4936 45.9158L45.4869 45.9253L45.6507 46.04ZM45.1707 45.73L44.9809 45.7933L44.9829 45.7987L45.1707 45.73ZM44.7007 43.46L44.5031 43.4904L44.5034 43.4925L44.7007 43.46ZM44.5207 42.29L44.3226 42.3174L44.3231 42.3204L44.5207 42.29ZM44.4307 41.64L44.6289 41.6126L44.2328 41.6117L44.4307 41.64ZM44.2307 43.11L44.0323 43.0852L44.0319 43.0883L44.2307 43.11ZM44.1107 44.42L44.3099 44.4391L44.3101 44.4357L44.1107 44.42ZM43.9507 46.05L43.8091 45.9083L43.8013 45.9171L43.9507 46.05ZM43.7607 45.94C43.7352 45.94 43.7215 45.9341 43.7119 45.9275C43.7007 45.9198 43.6826 45.9025 43.6631 45.8625C43.6214 45.7769 43.5907 45.6235 43.5907 45.38H43.1907C43.1907 45.6432 43.2217 45.8698 43.3034 46.0375C43.3456 46.1242 43.4046 46.2018 43.4859 46.2575C43.5687 46.3142 43.663 46.34 43.7607 46.34V45.94ZM43.5907 45.38C43.5907 45.2053 43.5538 44.8262 43.4843 44.2582C43.414 43.6846 43.3088 42.9057 43.1687 41.9218L42.7727 41.9782C42.9127 42.961 43.0175 43.737 43.0872 44.3068C43.1577 44.8821 43.1907 45.2347 43.1907 45.38H43.5907ZM43.1689 41.9226C43.0321 40.9354 42.9202 40.1712 42.8332 39.6307C42.7897 39.3606 42.7522 39.1449 42.7207 38.9846C42.6908 38.8321 42.663 38.7109 42.636 38.6445L42.2655 38.7955C42.2752 38.8191 42.2965 38.9 42.3282 39.0616C42.3584 39.2155 42.3951 39.426 42.4383 39.6943C42.5246 40.2305 42.636 40.9913 42.7726 41.9774L43.1689 41.9226ZM42.6266 38.8153C42.6883 38.7014 42.7462 38.68 42.8007 38.68V38.28C42.5619 38.28 42.3866 38.4186 42.2749 38.6247L42.6266 38.8153ZM42.8007 38.68C42.7568 38.68 42.744 38.6541 42.7619 38.675C42.7793 38.6954 42.8062 38.7384 42.8384 38.8164C42.9022 38.9708 42.9684 39.2149 43.0343 39.5578L43.4271 39.4822C43.3597 39.1317 43.2876 38.8559 43.2081 38.6636C43.1687 38.5683 43.1226 38.4813 43.0658 38.415C43.0096 38.3492 42.9213 38.28 42.8007 38.28V38.68ZM43.0337 39.554C43.1592 40.2809 43.2653 41.1155 43.3516 42.0582L43.7499 42.0218C43.6629 41.0712 43.5556 40.2257 43.4278 39.486L43.0337 39.554ZM43.3515 42.0572L43.4215 42.8672L43.82 42.8328L43.75 42.0228L43.3515 42.0572ZM43.4215 42.8676C43.4415 43.0945 43.4575 43.2663 43.4693 43.3827C43.4751 43.4406 43.4801 43.4862 43.4842 43.5183C43.4862 43.534 43.4883 43.5488 43.4904 43.5612C43.4914 43.5669 43.493 43.5757 43.4954 43.5852C43.4965 43.5896 43.4988 43.5984 43.5027 43.6087C43.5031 43.6096 43.5155 43.6476 43.5493 43.6814L43.8322 43.3986C43.8524 43.4188 43.8633 43.4385 43.8674 43.4463C43.8725 43.456 43.8757 43.4641 43.8774 43.4687C43.8808 43.4778 43.8826 43.4848 43.8832 43.4871C43.8845 43.4922 43.8849 43.495 43.8845 43.4929C43.884 43.4896 43.8828 43.4819 43.881 43.468C43.8776 43.4409 43.873 43.3994 43.8672 43.3423C43.8557 43.2287 43.8399 43.0589 43.82 42.8324L43.4215 42.8676ZM43.8893 43.5636L43.9893 42.7236L43.5921 42.6764L43.4921 43.5164L43.8893 43.5636ZM43.9894 42.7229L44.0494 42.2029L43.6521 42.1571L43.5921 42.6771L43.9894 42.7229ZM44.0495 42.2027C44.1361 41.4427 44.1931 40.9035 44.22 40.587L43.8215 40.553C43.7951 40.8632 43.7387 41.3973 43.652 42.1573L44.0495 42.2027ZM44.2201 40.5861C44.2534 40.1735 44.2707 39.8825 44.2707 39.72H43.8707C43.8707 39.8642 43.8548 40.1399 43.8214 40.5539L44.2201 40.5861ZM44.2707 39.72V39.53H43.8707V39.72H44.2707ZM44.2707 39.53C44.2707 39.5093 44.2771 39.4822 44.3069 39.4449L43.9946 39.1951C43.9177 39.2911 43.8707 39.404 43.8707 39.53H44.2707ZM44.3069 39.4449C44.3212 39.4271 44.3304 39.4212 44.3329 39.4198C44.334 39.4192 44.3339 39.4194 44.3329 39.4197C44.3318 39.4199 44.3309 39.42 44.3307 39.42V39.02C44.1869 39.02 44.0743 39.0954 43.9946 39.1951L44.3069 39.4449ZM44.3307 39.42C44.4279 39.42 44.4635 39.441 44.4727 39.4486C44.4749 39.4505 44.4907 39.4614 44.4907 39.52H44.8907C44.8907 39.3786 44.8466 39.2395 44.7288 39.1414C44.618 39.049 44.4736 39.02 44.3307 39.02V39.42ZM44.4907 39.52V39.67H44.8907V39.52H44.4907ZM44.4907 39.67C44.4907 40.0627 44.5286 40.4838 44.6035 40.9329L44.998 40.8671C44.9262 40.4362 44.8907 40.0373 44.8907 39.67H44.4907ZM44.6041 40.9363C44.6849 41.3744 44.7991 41.8981 44.9463 42.507L45.3351 42.413C45.189 41.8086 45.0765 41.2923 44.9974 40.8637L44.6041 40.9363ZM44.9474 42.5111C45.039 42.858 45.1313 43.2827 45.2241 43.7862L45.6174 43.7138C45.5235 43.204 45.4291 42.7687 45.3341 42.4089L44.9474 42.5111ZM45.6199 43.7681C45.6395 43.5523 45.7024 43.0229 45.8092 42.175L45.4123 42.125C45.3058 42.9705 45.2419 43.5077 45.2216 43.7319L45.6199 43.7681ZM45.8089 42.1773C45.9158 41.402 45.9929 40.7417 46.04 40.1972L45.6415 40.1628C45.5952 40.6983 45.519 41.3514 45.4126 42.1227L45.8089 42.1773ZM46.0398 40.1994C46.0937 39.6473 46.1207 39.1307 46.1207 38.65H45.7207C45.7207 39.1159 45.6945 39.6194 45.6417 40.1606L46.0398 40.1994ZM46.1207 38.65C46.1207 38.5824 46.126 38.5327 46.1336 38.4977C46.1415 38.4617 46.1498 38.4513 46.1486 38.4528L45.8329 38.2072C45.7424 38.3236 45.7207 38.49 45.7207 38.65H46.1207ZM46.1469 38.4549C46.1469 38.4549 46.1469 38.4549 46.1469 38.4549C46.1469 38.4549 46.1469 38.4549 46.1469 38.4549C46.1469 38.4549 46.1469 38.4549 46.147 38.4549C46.147 38.4548 46.1471 38.4547 46.1473 38.4546C46.1477 38.4542 46.1484 38.4536 46.1498 38.4527C46.1526 38.4508 46.1583 38.4476 46.1684 38.4441C46.1896 38.4368 46.2253 38.43 46.2807 38.43V38.03C46.1184 38.03 45.9447 38.0674 45.8346 38.2051L46.1469 38.4549ZM46.2807 38.43C46.3116 38.43 46.3343 38.4386 46.3579 38.4595L46.6236 38.1605C46.5271 38.0748 46.4099 38.03 46.2807 38.03V38.43ZM46.376 38.4738C46.3817 38.4778 46.3849 38.4809 46.3865 38.4827C46.3881 38.4844 46.3886 38.4853 46.3888 38.4856C46.3889 38.4859 46.3893 38.4867 46.3897 38.4884C46.3901 38.4903 46.3907 38.4939 46.3907 38.5H46.7907C46.7907 38.3534 46.7245 38.2295 46.6054 38.1462L46.376 38.4738ZM46.3907 38.5C46.3907 38.5103 46.3862 38.5431 46.3371 38.602L46.6444 38.858C46.7286 38.7569 46.7907 38.6364 46.7907 38.5H46.3907ZM46.2907 38.73C46.2907 39.2004 46.2548 39.7558 46.182 40.3975L46.5795 40.4425C46.6534 39.7908 46.6907 39.2196 46.6907 38.73H46.2907ZM46.182 40.3972C46.1092 41.0331 46.0198 41.6387 45.914 42.2138L46.3074 42.2862C46.415 41.7013 46.5056 41.0869 46.5794 40.4428L46.182 40.3972ZM45.9142 42.213C45.8065 42.7852 45.7158 43.4001 45.642 44.0577L46.0395 44.1023C46.1123 43.4532 46.2017 42.8482 46.3073 42.287L45.9142 42.213ZM45.642 44.0575C45.5681 44.7094 45.5307 45.2872 45.5307 45.79H45.9307C45.9307 45.3061 45.9667 44.7439 46.0395 44.1025L45.642 44.0575ZM45.5307 45.79C45.5307 45.8641 45.5126 45.8944 45.5013 45.9071L45.8002 46.1729C45.8955 46.0656 45.9307 45.9293 45.9307 45.79H45.5307ZM45.4869 45.9253C45.4839 45.9296 45.4817 45.9312 45.478 45.9329C45.4728 45.9353 45.4589 45.94 45.4307 45.94V46.34C45.5791 46.34 45.7218 46.2873 45.8146 46.1547L45.4869 45.9253ZM45.4307 45.94C45.477 45.94 45.5024 45.9617 45.5031 45.9623C45.5042 45.9632 45.4957 45.9557 45.4796 45.9304C45.4478 45.8801 45.4069 45.7933 45.3586 45.6613L44.9829 45.7987C45.0346 45.94 45.0871 46.0582 45.1418 46.1446C45.1691 46.1876 45.2023 46.2314 45.2433 46.2664C45.2841 46.3012 45.3478 46.34 45.4307 46.34V45.94ZM45.3605 45.6668C45.2396 45.3042 45.0851 44.563 44.8981 43.4275L44.5034 43.4925C44.6897 44.6237 44.8485 45.3958 44.981 45.7932L45.3605 45.6668ZM44.8984 43.4296L44.7184 42.2596L44.3231 42.3204L44.5031 43.4904L44.8984 43.4296ZM44.7189 42.2626L44.6289 41.6126L44.2326 41.6674L44.3226 42.3174L44.7189 42.2626ZM44.2328 41.6117C44.146 42.2189 44.0792 42.7102 44.0323 43.0852L44.4292 43.1348C44.4757 42.7631 44.5421 42.2744 44.6287 41.6683L44.2328 41.6117ZM44.0319 43.0883C43.9916 43.4575 43.9515 43.8963 43.9114 44.4043L44.3101 44.4357C44.35 43.9304 44.3898 43.4958 44.4296 43.1317L44.0319 43.0883ZM43.9117 44.4009C43.8644 44.8937 43.8407 45.3801 43.8407 45.86H44.2407C44.2407 45.3932 44.2638 44.9196 44.3098 44.4391L43.9117 44.4009ZM43.8407 45.86C43.8407 45.8602 43.8426 45.8753 43.8093 45.9086L44.0922 46.1914C44.1789 46.1047 44.2407 45.9932 44.2407 45.86H43.8407ZM43.8013 45.9171C43.7818 45.939 43.7711 45.94 43.7607 45.94V46.34C43.897 46.34 44.013 46.281 44.1002 46.1829L43.8013 45.9171ZM53.0421 46.01L53.1095 45.8213L53.0986 45.8181L53.0421 46.01ZM52.8121 39.41L53.0093 39.3752L53.0072 39.3659L52.8121 39.41ZM52.7421 38.87L52.5712 38.7662L52.5421 38.814V38.87H52.7421ZM52.9921 38.51V38.31H52.9093L52.8507 38.3686L52.9921 38.51ZM53.3621 38.47L53.3964 38.6671L53.3996 38.6665L53.3621 38.47ZM54.0421 38.53L53.9311 38.6966L53.9392 38.7015L54.0421 38.53ZM53.5921 39.05L53.5593 39.2473L53.5756 39.25H53.5921V39.05ZM53.3421 39.05L53.2527 38.8711L53.1421 38.9264V39.05H53.3421ZM53.3821 39.87L53.5817 39.8557L53.5815 39.8534L53.3821 39.87ZM53.4021 40.15L53.6021 40.1427L53.6016 40.1358L53.4021 40.15ZM53.4221 40.7H53.6223L53.622 40.6927L53.4221 40.7ZM53.3921 41.28L53.1926 41.2646L53.1923 41.2729L53.3921 41.28ZM53.3721 41.84L53.1723 41.8329L53.1631 42.0893L53.4141 42.0356L53.3721 41.84ZM53.5121 41.81L53.5541 42.0056L53.5619 42.0039L53.5696 42.0016L53.5121 41.81ZM54.0421 41.84L53.9005 41.9817L53.9093 41.9895L54.0421 41.84ZM54.0521 42.25L53.896 42.125L53.8943 42.1272L54.0521 42.25ZM53.8721 42.34L53.8555 42.5393L53.8638 42.54H53.8721V42.34ZM53.7521 42.33L53.7688 42.1307L53.7605 42.13H53.7521V42.33ZM53.4121 42.4L53.2603 42.2698L53.2121 42.326V42.4H53.4121ZM53.4121 45.49H53.2121V45.701L53.4228 45.6897L53.4121 45.49ZM53.9721 45.46V45.2597L53.9614 45.2603L53.9721 45.46ZM54.5421 45.76L54.721 45.8494L54.7421 45.8072V45.76H54.5421ZM54.3221 45.96L54.4024 46.1435L54.4116 46.1389L54.3221 45.96ZM54.0121 46.05L54.0182 46.2499L54.0284 46.2496L54.0386 46.2482L54.0121 46.05ZM53.6821 46.06V46.2601L53.6882 46.2599L53.6821 46.06ZM53.3721 45.86C53.2623 45.86 53.1761 45.8455 53.1094 45.8217L52.9749 46.1983C53.0949 46.2412 53.2286 46.26 53.3721 46.26V45.86ZM53.0986 45.8181C53.0904 45.8157 53.0875 45.8135 53.0873 45.8134C53.0871 45.8132 53.087 45.8131 53.0869 45.813C53.0868 45.8129 53.0863 45.8124 53.0856 45.8112C53.0825 45.806 53.0721 45.7842 53.0721 45.73H52.6721C52.6721 45.8292 52.6902 45.9307 52.7437 46.0188C52.8001 46.1117 52.8855 46.1724 52.9857 46.2019L53.0986 45.8181ZM53.0721 45.73V39.92H52.6721V45.73H53.0721ZM53.0721 39.92C53.0721 39.7884 53.0495 39.6042 53.0091 39.3752L52.6152 39.4448C52.6548 39.6691 52.6721 39.8249 52.6721 39.92H53.0721ZM53.0072 39.3659C52.9622 39.1663 52.9421 39.0125 52.9421 38.9H52.5421C52.5421 39.0542 52.5688 39.2403 52.6171 39.4541L53.0072 39.3659ZM52.9421 38.9V38.87H52.5421V38.9H52.9421ZM52.9131 38.9738C53.0283 38.7841 53.1 38.685 53.1336 38.6514L52.8507 38.3686C52.7777 38.4416 52.6827 38.5826 52.5712 38.7662L52.9131 38.9738ZM52.9921 38.71C53.102 38.71 53.2382 38.6946 53.3964 38.667L53.3279 38.273C53.1795 38.2988 53.0689 38.31 52.9921 38.31V38.71ZM53.3996 38.6665C53.5311 38.6414 53.6414 38.63 53.7321 38.63V38.23C53.6095 38.23 53.4732 38.2452 53.3247 38.2735L53.3996 38.6665ZM53.7321 38.63C53.7945 38.63 53.8598 38.6488 53.9312 38.6964L54.1531 38.3636C54.0245 38.2779 53.8832 38.23 53.7321 38.23V38.63ZM53.9392 38.7015C53.9719 38.7211 53.985 38.7361 53.9894 38.7427C53.9923 38.747 53.9921 38.7479 53.9921 38.75H54.3921C54.3921 38.5695 54.2818 38.4406 54.145 38.3585L53.9392 38.7015ZM53.9921 38.75C53.9921 38.7742 53.9876 38.7857 53.9853 38.7902C53.9834 38.794 53.9796 38.7998 53.9679 38.8075C53.939 38.8263 53.8701 38.85 53.7321 38.85V39.25C53.9008 39.25 54.062 39.2237 54.1864 39.1425C54.3256 39.0517 54.3921 38.9102 54.3921 38.75H53.9921ZM53.7321 38.85H53.5921V39.25H53.7321V38.85ZM53.625 38.8527C53.5714 38.8438 53.5133 38.84 53.4521 38.84V39.24C53.4977 39.24 53.5329 39.2429 53.5593 39.2473L53.625 38.8527ZM53.4521 38.84C53.4193 38.84 53.3884 38.8409 53.3615 38.8433C53.3445 38.8449 53.2969 38.849 53.2527 38.8711L53.4316 39.2289C53.4205 39.2344 53.4114 39.2375 53.4065 39.239C53.4012 39.2406 53.3974 39.2414 53.3957 39.2417C53.3927 39.2423 53.3929 39.2421 53.3978 39.2417C53.4022 39.2413 53.409 39.2408 53.4184 39.2405C53.4277 39.2402 53.4389 39.24 53.4521 39.24V38.84ZM53.1421 39.05C53.1421 39.284 53.1559 39.5632 53.1828 39.8866L53.5815 39.8534C53.5551 39.5368 53.5421 39.2694 53.5421 39.05H53.1421ZM53.1827 39.8842L53.2027 40.1642L53.6016 40.1358L53.5816 39.8558L53.1827 39.8842ZM53.2023 40.1573L53.2223 40.7073L53.622 40.6927L53.602 40.1427L53.2023 40.1573ZM53.2221 40.7C53.2221 40.8186 53.2127 41.0056 53.1927 41.2647L53.5916 41.2953C53.6116 41.0344 53.6221 40.8347 53.6221 40.7H53.2221ZM53.1923 41.2729L53.1723 41.8329L53.572 41.8471L53.592 41.2871L53.1923 41.2729ZM53.4141 42.0356L53.5541 42.0056L53.4702 41.6144L53.3302 41.6444L53.4141 42.0356ZM53.5696 42.0016C53.6941 41.9642 53.7831 41.95 53.8421 41.95V41.55C53.7279 41.55 53.5968 41.5758 53.4547 41.6184L53.5696 42.0016ZM53.8421 41.95C53.8541 41.95 53.8719 41.9526 53.9007 41.9814L54.1836 41.6986C54.0924 41.6074 53.9769 41.55 53.8421 41.55V41.95ZM53.9093 41.9895C53.9311 42.0089 53.9321 42.0196 53.9321 42.03H54.3321C54.3321 41.8937 54.2732 41.7778 54.175 41.6905L53.9093 41.9895ZM53.9321 42.03C53.9321 42.0614 53.923 42.0913 53.896 42.1251L54.2083 42.3749C54.288 42.2754 54.3321 42.1586 54.3321 42.03H53.9321ZM53.8943 42.1272C53.8904 42.1322 53.8875 42.135 53.8857 42.1365C53.884 42.138 53.883 42.1385 53.8827 42.1386C53.8824 42.1387 53.8819 42.139 53.8807 42.1393C53.8795 42.1395 53.8768 42.14 53.8721 42.14V42.54C54.0098 42.54 54.1271 42.4794 54.21 42.3728L53.8943 42.1272ZM53.8888 42.1407L53.7688 42.1307L53.7355 42.5293L53.8555 42.5393L53.8888 42.1407ZM53.7521 42.13H53.6221V42.53H53.7521V42.13ZM53.6221 42.13C53.4996 42.13 53.3567 42.1574 53.2603 42.2698L53.564 42.5302C53.5561 42.5394 53.5504 42.5397 53.5579 42.5372C53.5667 42.5343 53.5865 42.53 53.6221 42.53V42.13ZM53.2121 42.4V45.49H53.6121V42.4H53.2121ZM53.4228 45.6897L53.9828 45.6597L53.9614 45.2603L53.4014 45.2903L53.4228 45.6897ZM53.9721 45.66C54.1532 45.66 54.2611 45.6816 54.3166 45.707C54.342 45.7185 54.3467 45.7265 54.345 45.7243C54.3418 45.7198 54.3421 45.7157 54.3421 45.72H54.7421C54.7421 45.6377 54.7187 45.5577 54.668 45.4882C54.6189 45.421 54.5523 45.3748 54.4826 45.343C54.3482 45.2817 54.1711 45.26 53.9721 45.26V45.66ZM54.3421 45.72V45.76H54.7421V45.72H54.3421ZM54.3633 45.6706C54.3482 45.7007 54.3135 45.7407 54.2327 45.7811L54.4116 46.1389C54.5442 46.0726 54.6561 45.9793 54.721 45.8494L54.3633 45.6706ZM54.242 45.7768C54.1499 45.8171 54.0646 45.8412 53.9857 45.8518L54.0386 46.2482C54.1597 46.2321 54.2811 46.1963 54.4023 46.1432L54.242 45.7768ZM54.0061 45.8501L53.6761 45.8601L53.6882 46.2599L54.0182 46.2499L54.0061 45.8501ZM53.6821 45.86H53.3721V46.26H53.6821V45.86ZM62.1654 45.83H61.9654V45.8906L61.9989 45.9409L62.1654 45.83ZM62.1654 45.8H62.3657L62.365 45.7887L62.1654 45.8ZM61.9854 44.62L62.1802 44.575L62.1802 44.575L61.9854 44.62ZM61.5454 43.05L61.7361 42.9899L61.7359 42.9892L61.5454 43.05ZM61.1754 41.81L61.3683 41.7574L60.9754 41.81H61.1754ZM61.1154 45.99L60.9553 45.87L60.9526 45.8738L61.1154 45.99ZM60.7154 45.99L60.5645 46.122L60.5739 46.1314L60.7154 45.99ZM60.6454 45.71L60.4454 45.7086V45.71H60.6454ZM60.6654 42.77L60.4654 42.7669L60.4654 42.7686L60.6654 42.77ZM60.7354 38.45L60.8603 38.6062L60.8689 38.5993L60.8768 38.5914L60.7354 38.45ZM61.4054 38.5L61.3193 38.6807L61.3266 38.6838L61.4054 38.5ZM61.7654 38.76L61.6154 38.8923L61.6156 38.8926L61.7654 38.76ZM62.1654 39.6L61.9686 39.6361L61.9692 39.6392L62.1654 39.6ZM62.1754 40.39L61.9778 40.3571L61.9766 40.3679L62.1754 40.39ZM62.1454 40.62L61.9492 40.5808L61.9492 40.5808L62.1454 40.62ZM61.9654 41.18L62.1492 41.2588L62.1525 41.2511L62.1551 41.2432L61.9654 41.18ZM61.8454 41.46L61.6614 41.3812L61.6587 41.3882L61.8454 41.46ZM61.7454 41.72L61.5587 41.6482L61.5443 41.6856L61.5454 41.7256L61.7454 41.72ZM61.8654 42.63L61.6692 42.6692L61.6699 42.6726L61.8654 42.63ZM62.1254 43.65L61.9337 43.7071L61.9339 43.708L62.1254 43.65ZM62.4854 44.75L62.6753 44.6874L62.6748 44.686L62.4854 44.75ZM62.7754 45.63H62.9754V45.5979L62.9653 45.5674L62.7754 45.63ZM62.7454 45.94L62.551 45.8914L62.5488 45.9031L62.7454 45.94ZM61.1554 41.36L60.9562 41.3781L60.9948 41.8034L61.2968 41.5014L61.1554 41.36ZM61.4954 40.97L61.6515 41.0949L61.6836 41.0549L61.6924 41.0044L61.4954 40.97ZM61.6454 40.11L61.4492 40.0708L61.4483 40.0756L61.6454 40.11ZM61.5454 39.3L61.7376 39.2443L61.7351 39.2368L61.5454 39.3ZM61.3854 39L61.2209 39.1138L61.226 39.1212L61.2317 39.128L61.3854 39ZM61.1954 38.86L61.2153 38.661L60.9997 38.6394L60.9954 38.856L61.1954 38.86ZM61.1754 39.86L61.3752 39.8689L61.3753 39.864L61.1754 39.86ZM62.5354 45.9C62.512 45.9 62.4409 45.8828 62.3318 45.7191L61.9989 45.9409C62.1298 46.1372 62.3054 46.3 62.5354 46.3V45.9ZM62.3654 45.83V45.8H61.9654V45.83H62.3654ZM62.365 45.7887C62.3443 45.4216 62.2822 45.0168 62.1802 44.575L61.7905 44.665C61.8885 45.0899 61.9465 45.4718 61.9657 45.8113L62.365 45.7887ZM62.1802 44.575C62.0787 44.1349 61.9304 43.6062 61.7361 42.9899L61.3546 43.1101C61.547 43.7205 61.692 44.2384 61.7905 44.665L62.1802 44.575ZM61.7359 42.9892C61.5899 42.5313 61.4674 42.1207 61.3683 41.7574L60.9824 41.8626C61.0833 42.2326 61.2075 42.6487 61.3548 43.1108L61.7359 42.9892ZM60.9754 41.81V45.75H61.3754V41.81H60.9754ZM60.9754 45.75C60.9754 45.8374 60.9579 45.8665 60.9554 45.87L61.2754 46.11C61.3528 46.0068 61.3754 45.8759 61.3754 45.75H60.9754ZM60.9526 45.8738C60.9667 45.854 60.981 45.8506 60.9746 45.8528C60.9669 45.8553 60.9459 45.86 60.9054 45.86V46.26C61.0239 46.26 61.1845 46.2372 61.2781 46.1062L60.9526 45.8738ZM60.9054 45.86C60.8664 45.86 60.8582 45.85 60.8568 45.8486L60.5739 46.1314C60.6658 46.2233 60.7843 46.26 60.9054 46.26V45.86ZM60.8659 45.8583C60.8552 45.8462 60.8454 45.8282 60.8454 45.79H60.4454C60.4454 45.9118 60.4821 46.0272 60.5648 46.1217L60.8659 45.8583ZM60.8454 45.79V45.71H60.4454V45.79H60.8454ZM60.8453 45.7114L60.8653 42.7714L60.4654 42.7686L60.4454 45.7086L60.8453 45.7114ZM60.8653 42.7731C60.8787 41.9052 60.8854 40.9274 60.8854 39.84H60.4854C60.4854 40.9259 60.4787 41.9015 60.4654 42.7669L60.8653 42.7731ZM60.8854 39.84V38.61H60.4854V39.84H60.8854ZM60.8854 38.61C60.8854 38.5968 60.886 38.5869 60.8869 38.5798C60.8878 38.5727 60.8888 38.5696 60.8887 38.5697C60.8887 38.5697 60.8874 38.5742 60.8831 38.581C60.8786 38.5881 60.8713 38.5974 60.8603 38.6062L60.6104 38.2938C60.5013 38.3811 60.4854 38.5185 60.4854 38.61H60.8854ZM60.8768 38.5914C60.8663 38.6019 60.8573 38.6067 60.8543 38.6082C60.8514 38.6096 60.8524 38.6087 60.8592 38.6071C60.8736 38.6036 60.9009 38.6 60.9454 38.6V38.2C60.8831 38.2 60.8221 38.2047 60.7665 38.2179C60.713 38.2307 60.6471 38.2554 60.5939 38.3086L60.8768 38.5914ZM60.9454 38.6C61.0845 38.6 61.2082 38.6276 61.3194 38.6806L61.4913 38.3194C61.3225 38.239 61.1395 38.2 60.9454 38.2V38.6ZM61.3266 38.6838C61.4395 38.7322 61.5352 38.8014 61.6154 38.8923L61.9153 38.6277C61.7955 38.4919 61.6512 38.3878 61.4841 38.3162L61.3266 38.6838ZM61.6156 38.8926C61.7965 39.0969 61.9148 39.3429 61.9686 39.6361L62.3621 39.5639C62.2959 39.2038 62.1475 38.8898 61.9151 38.6274L61.6156 38.8926ZM61.9692 39.6392C61.9927 39.7567 62.0054 39.8964 62.0054 40.06H62.4054C62.4054 39.8769 62.3913 39.71 62.3615 39.5608L61.9692 39.6392ZM62.0054 40.06C62.0054 40.1469 61.9966 40.2457 61.9781 40.3571L62.3726 40.4229C62.3941 40.2943 62.4054 40.1731 62.4054 40.06H62.0054ZM61.9766 40.3679C61.963 40.4904 61.9539 40.5577 61.9492 40.5808L62.3415 40.6592C62.3502 40.6156 62.3611 40.5296 62.3741 40.4121L61.9766 40.3679ZM61.9492 40.5808C61.9388 40.6331 61.9127 40.7221 61.8666 40.8539L62.2441 40.9861C62.2913 40.8512 62.3253 40.7403 62.3415 40.6592L61.9492 40.5808ZM61.8666 40.8539C61.82 40.9869 61.7895 41.0751 61.7756 41.1168L62.1551 41.2432C62.1679 41.2049 62.1973 41.1198 62.2441 40.9861L61.8666 40.8539ZM61.7815 41.1012L61.6615 41.3812L62.0292 41.5388L62.1492 41.2588L61.7815 41.1012ZM61.6587 41.3882L61.5587 41.6482L61.932 41.7918L62.032 41.5318L61.6587 41.3882ZM61.5454 41.7256C61.5525 41.9813 61.5948 42.2969 61.6692 42.6692L62.0615 42.5908C61.9893 42.2298 61.9515 41.9387 61.9453 41.7144L61.5454 41.7256ZM61.6699 42.6726C61.7509 43.0435 61.8387 43.3884 61.9337 43.7071L62.317 43.5929C62.2253 43.285 62.1398 42.9499 62.0608 42.5874L61.6699 42.6726ZM61.9339 43.708C62.0016 43.9313 62.1225 44.3006 62.2959 44.814L62.6748 44.686C62.5015 44.1727 62.3824 43.8087 62.3168 43.592L61.9339 43.708ZM62.2954 44.8126L62.5854 45.6926L62.9653 45.5674L62.6753 44.6874L62.2954 44.8126ZM62.5754 45.63V45.65H62.9754V45.63H62.5754ZM62.5754 45.65C62.5754 45.7526 62.5662 45.832 62.5513 45.8915L62.9394 45.9885C62.9645 45.888 62.9754 45.7741 62.9754 45.65H62.5754ZM62.5488 45.9031C62.5471 45.9121 62.5454 45.9141 62.5467 45.9119C62.5473 45.9108 62.5484 45.909 62.5503 45.9069C62.5522 45.9047 62.5543 45.9027 62.5566 45.9009C62.5615 45.8972 62.5643 45.8968 62.5619 45.8974C62.5591 45.8982 62.5509 45.9 62.5354 45.9V46.3C62.6234 46.3 62.7185 46.2805 62.7991 46.2191C62.8821 46.1558 62.925 46.067 62.9419 45.9769L62.5488 45.9031ZM61.2968 41.5014C61.3975 41.4007 61.516 41.2643 61.6515 41.0949L61.3392 40.8451C61.208 41.009 61.0999 41.1326 61.0139 41.2186L61.2968 41.5014ZM61.6924 41.0044L61.8424 40.1444L61.4483 40.0756L61.2983 40.9356L61.6924 41.0044ZM61.8415 40.1492C61.852 40.0968 61.8554 40.0348 61.8554 39.97H61.4554C61.4554 40.0252 61.4521 40.0566 61.4492 40.0708L61.8415 40.1492ZM61.8554 39.97C61.8554 39.7524 61.8143 39.5097 61.7375 39.2444L61.3532 39.3556C61.4231 39.597 61.4554 39.8009 61.4554 39.97H61.8554ZM61.7351 39.2368C61.6888 39.098 61.6246 38.9747 61.539 38.872L61.2317 39.128C61.2794 39.1853 61.3219 39.262 61.3556 39.3632L61.7351 39.2368ZM61.5498 38.8862C61.4754 38.7788 61.3669 38.6762 61.2153 38.661L61.1754 39.059C61.1673 39.0582 61.1664 39.0552 61.1742 39.061C61.1832 39.0677 61.1995 39.0829 61.2209 39.1138L61.5498 38.8862ZM60.9954 38.856L60.9754 39.856L61.3753 39.864L61.3953 38.864L60.9954 38.856ZM60.9756 39.8511C60.9555 40.2987 60.9454 40.6489 60.9454 40.9H61.3454C61.3454 40.6578 61.3552 40.3146 61.3751 39.8689L60.9756 39.8511ZM60.9454 40.9C60.9454 41.1314 60.9485 41.2941 60.9562 41.3781L61.3545 41.3419C61.3488 41.2792 61.3454 41.1352 61.3454 40.9H60.9454ZM69.206 46.05L69.0642 46.1917L69.0743 46.2005L69.206 46.05ZM69.136 45.88L68.936 45.8759V45.88H69.136ZM69.156 44.91L68.9561 44.9008L68.956 44.9059L69.156 44.91ZM69.096 43.08L69.2936 43.0488L69.2929 43.0448L69.096 43.08ZM68.886 41.34L68.6908 41.3838L68.6908 41.3838L68.886 41.34ZM68.606 40.4L68.4185 40.4697L68.4189 40.4707L68.606 40.4ZM68.336 39.48L68.1406 39.523L68.1408 39.5238L68.336 39.48ZM68.306 38.49L68.412 38.6596L68.412 38.6596L68.306 38.49ZM68.686 38.67L68.5025 38.7498L68.5044 38.7538L68.686 38.67ZM69.046 39.96L69.2426 39.923L69.2412 39.9166L69.046 39.96ZM69.176 40.65L68.9793 40.6871L68.981 40.6943L69.176 40.65ZM69.276 41.09L69.081 41.1343L69.4726 41.1269L69.276 41.09ZM69.326 40.67L69.5254 40.6853L69.5255 40.6844L69.326 40.67ZM69.476 39.29L69.2792 39.2538L69.2786 39.2577L69.476 39.29ZM69.636 38.71L69.4539 38.6272L69.4536 38.6279L69.636 38.71ZM69.666 41.96L69.8644 41.9848L69.866 41.9725V41.96H69.666ZM69.646 42.12L69.8442 42.1464L69.8444 42.1448L69.646 42.12ZM69.636 42.3H69.836V42.2675L69.8257 42.2368L69.636 42.3ZM69.666 43.78L69.866 43.777L69.8659 43.7733L69.666 43.78ZM69.686 45.11L69.486 45.113L69.4861 45.1202L69.4867 45.1273L69.686 45.11ZM69.706 45.34L69.9053 45.3234L69.9052 45.3227L69.706 45.34ZM69.726 45.58H69.926V45.5717L69.9253 45.5634L69.726 45.58ZM69.626 46.03L69.5008 45.8736L69.4922 45.8813L69.626 46.03ZM69.386 45.92C69.371 45.92 69.3571 45.9164 69.3377 45.8995L69.0743 46.2005C69.1616 46.2769 69.2676 46.32 69.386 46.32V45.92ZM69.3474 45.9086C69.3387 45.8998 69.336 45.8942 69.336 45.88H68.936C68.936 45.9991 68.98 46.1068 69.0646 46.1914L69.3474 45.9086ZM69.3359 45.8841L69.3559 44.9141L68.956 44.9059L68.936 45.8759L69.3359 45.8841ZM69.3558 44.9192C69.3758 44.4853 69.386 44.1581 69.386 43.94H68.986C68.986 44.1485 68.9762 44.4681 68.9562 44.9008L69.3558 44.9192ZM69.386 43.94C69.386 43.7304 69.3539 43.4311 69.2935 43.0488L68.8984 43.1112C68.9581 43.4889 68.986 43.7629 68.986 43.94H69.386ZM69.2929 43.0448C69.2269 42.6752 69.196 42.3989 69.196 42.21H68.796C68.796 42.4344 68.8318 42.7381 68.8991 43.1152L69.2929 43.0448ZM69.196 42.21C69.196 41.9381 69.1567 41.6329 69.0811 41.2962L68.6908 41.3838C68.7619 41.7004 68.796 41.9752 68.796 42.21H69.196ZM69.0811 41.2962C69.0058 40.9608 68.9099 40.6385 68.7931 40.3293L68.4189 40.4707C68.5288 40.7615 68.6195 41.0659 68.6908 41.3838L69.0811 41.2962ZM68.7934 40.3303C68.6902 40.0528 68.6027 39.7549 68.5311 39.4362L68.1408 39.5238C68.216 39.8585 68.3084 40.1739 68.4185 40.4697L68.7934 40.3303ZM68.5313 39.437C68.46 39.1129 68.426 38.8379 68.426 38.61H68.026C68.026 38.8754 68.0653 39.1805 68.1406 39.523L68.5313 39.437ZM68.426 38.61C68.426 38.6177 68.4248 38.6263 68.4221 38.6351C68.4194 38.6438 68.4158 38.6508 68.4124 38.6559C68.4059 38.6656 68.4023 38.6657 68.412 38.6596L68.2 38.3204C68.1109 38.3761 68.026 38.4713 68.026 38.61H68.426ZM68.412 38.6596C68.4351 38.6451 68.4553 38.64 68.476 38.64V38.24C68.3766 38.24 68.2835 38.2682 68.2 38.3204L68.412 38.6596ZM68.476 38.64C68.4363 38.64 68.4225 38.6178 68.4358 38.6324C68.4497 38.6476 68.4733 38.6825 68.5026 38.7497L68.8694 38.5903C68.832 38.5041 68.7873 38.4241 68.7312 38.3626C68.6744 38.3005 68.589 38.24 68.476 38.24V38.64ZM68.5044 38.7538C68.5762 38.9094 68.6492 39.1378 68.7212 39.4456L69.1107 39.3544C69.0361 39.0356 68.9558 38.7773 68.8676 38.5862L68.5044 38.7538ZM68.7212 39.4456C68.7947 39.7595 68.8377 39.9448 68.8507 40.0034L69.2412 39.9166C69.2276 39.8552 69.1839 39.6672 69.1107 39.3544L68.7212 39.4456ZM68.8494 39.997L68.9794 40.687L69.3725 40.613L69.2425 39.923L68.8494 39.997ZM68.981 40.6943L69.081 41.1343L69.471 41.0457L69.371 40.6057L68.981 40.6943ZM69.4726 41.1269C69.4944 41.0102 69.5118 40.8622 69.5254 40.6853L69.1266 40.6547C69.1135 40.8245 69.0975 40.9565 69.0794 41.0531L69.4726 41.1269ZM69.5255 40.6844C69.5652 40.1345 69.6147 39.6809 69.6734 39.3223L69.2786 39.2577C69.2173 39.6324 69.1667 40.0989 69.1265 40.6556L69.5255 40.6844ZM69.6727 39.3262C69.7183 39.0787 69.7681 38.9037 69.8184 38.7921L69.4536 38.6279C69.3838 38.783 69.327 38.9947 69.2793 39.2538L69.6727 39.3262ZM69.8181 38.7928C69.8452 38.7331 69.8681 38.7043 69.8811 38.6924C69.8906 38.6837 69.8874 38.69 69.876 38.69V38.29C69.6577 38.29 69.5279 38.4644 69.4539 38.6272L69.8181 38.7928ZM69.876 38.69C69.9152 38.69 69.9461 38.6918 69.9696 38.6947C69.9938 38.6977 70.0057 38.7013 70.009 38.7025C70.0133 38.7041 69.9981 38.6997 69.9804 38.68C69.971 38.6696 69.9618 38.6557 69.9552 38.6385C69.9485 38.6214 69.946 38.6046 69.946 38.59H70.346C70.346 38.5234 70.3217 38.4613 70.2778 38.4125C70.2376 38.3678 70.1887 38.3425 70.1479 38.3274C70.069 38.2982 69.9727 38.29 69.876 38.29V38.69ZM69.946 38.59C69.946 38.9479 69.8698 39.4908 69.7105 40.2277L70.1015 40.3123C70.2621 39.5692 70.346 38.9921 70.346 38.59H69.946ZM69.7105 40.2277C69.5498 40.9711 69.466 41.5513 69.466 41.96H69.866C69.866 41.5953 69.9422 41.0489 70.1015 40.3123L69.7105 40.2277ZM69.4675 41.9352L69.4475 42.0952L69.8444 42.1448L69.8644 41.9848L69.4675 41.9352ZM69.4477 42.0936C69.4408 42.1457 69.4359 42.1915 69.4338 42.2289C69.4328 42.2475 69.4322 42.267 69.433 42.2858C69.4337 42.3009 69.4355 42.3311 69.4462 42.3632L69.8257 42.2368C69.83 42.2497 69.8315 42.2595 69.832 42.2631C69.8326 42.2674 69.8327 42.2697 69.8327 42.2692C69.8326 42.268 69.8325 42.2625 69.8332 42.2511C69.8344 42.2285 69.8378 42.1943 69.8442 42.1464L69.4477 42.0936ZM69.436 42.3V42.46H69.836V42.3H69.436ZM69.436 42.46C69.436 42.7502 69.4461 43.193 69.4661 43.7867L69.8659 43.7733C69.8459 43.1803 69.836 42.7431 69.836 42.46H69.436ZM69.466 43.783L69.486 45.113L69.886 45.107L69.866 43.777L69.466 43.783ZM69.4867 45.1273L69.5067 45.3573L69.9052 45.3227L69.8852 45.0927L69.4867 45.1273ZM69.5067 45.3566L69.5267 45.5966L69.9253 45.5634L69.9053 45.3234L69.5067 45.3566ZM69.526 45.58V45.83H69.926V45.58H69.526ZM69.526 45.83C69.526 45.8447 69.5239 45.8555 69.501 45.8738L69.7509 46.1862C69.8614 46.0978 69.926 45.9753 69.926 45.83H69.526ZM69.4922 45.8813C69.4638 45.9068 69.4321 45.92 69.386 45.92V46.32C69.5265 46.32 69.6548 46.2732 69.7598 46.1787L69.4922 45.8813Z" fill="black" mask="url(#path-7-outside-1_118_4)"/>
</svg>
