<svg width="40" height="64" viewBox="0 0 40 64" fill="none" xmlns="http://www.w3.org/2000/svg">
  <path d="M13.2473 7.06235V7.59191C13.2473 16.565 11.8226 25.4811 9.02636 34.0074L2.56725 53.7024C2.19555 54.8358 2.12654 56.0466 2.36707 57.2149L2.39575 57.3542C2.69624 58.8137 3.49315 60.1241 4.65088 61.0622V61.0622C5.79878 61.9924 7.23142 62.5 8.7089 62.5H20.008" stroke="black" stroke-width="3"/>
  <path d="M26.7073 7.06235V7.59191C26.7073 16.565 28.132 25.4811 30.9282 34.0074L37.3873 53.7024C37.759 54.8358 37.8281 56.0466 37.5875 57.2149L37.5588 57.3542C37.2584 58.8137 36.4614 60.1241 35.3037 61.0622V61.0622C34.1558 61.9924 32.7232 62.5 31.2457 62.5H19.9466" stroke="black" stroke-width="3"/>
  <path d="M9.04 58.505H19.8237H30.925C31.6835 58.505 32.4068 58.1851 32.917 57.6239C33.5625 56.9138 33.7812 55.9139 33.4911 54.9992L28.5922 39.5528C28.1789 38.2495 27.183 37.2124 25.8974 36.7466C24.5211 36.2479 22.9868 36.4665 21.8046 37.3298L20.5479 38.2474C20.0679 38.5978 19.5375 38.8733 18.9747 39.0645L17.8424 39.449C17.0283 39.7255 16.136 39.6525 15.3777 39.2474C13.6627 38.3312 11.5371 39.1963 10.9493 41.0496L6.50967 55.048C6.22844 55.9347 6.43192 56.904 7.04601 57.6028C7.54999 58.1763 8.27651 58.505 9.04 58.505Z" fill="#EFC91C" stroke="black" stroke-width="3"/>
  <rect x="10.0148" y="2.47772" width="19.9863" height="4.12945" rx="2.06473" stroke="black" stroke-width="3"/>
  </svg>
