<svg width="39" height="59" viewBox="0 0 39 59" fill="none" xmlns="http://www.w3.org/2000/svg">
  <rect x="2.5" y="16.2586" width="34" height="39.3793" stroke="black" stroke-width="5"/>
  <path d="M10.7586 15.1034V11.069C10.7586 6.6126 14.3712 3 18.8276 3V3V3C23.284 3 26.8966 6.6126 26.8966 11.069V15.1034" stroke="black" stroke-width="5"/>
  <path d="M24.4205 28.9756L18.8296 35.5359C18.6528 35.7434 18.6747 36.0543 18.8789 36.2348L21.9616 38.9607" stroke="black" stroke-width="2" stroke-linecap="round"/>
  <path d="M18 23L22.4902 26.3409C22.6011 26.4234 22.5969 26.5907 22.482 26.6676L17.5 30" stroke="black" stroke-width="2.5" stroke-linecap="round"/>
  <path d="M27.3381 30.4795C27.7986 30.1746 28.4235 30.2989 28.6853 30.7852C29.7442 32.7516 30.1831 35.002 29.9302 37.2369C29.6397 39.8043 28.4547 42.1875 26.5829 43.9686C24.7112 45.7498 22.2722 46.8152 19.6936 46.9781C17.1149 47.141 14.5612 46.391 12.4802 44.8596C10.3992 43.3282 8.92366 41.1131 8.31233 38.6027C7.701 36.0922 7.99288 33.4467 9.1368 31.13C10.2807 28.8132 12.2037 26.9731 14.5685 25.9322C16.6271 25.026 18.9062 24.7759 21.0986 25.202C21.6407 25.3074 21.9452 25.8671 21.7911 26.3974L21.6974 26.7196C21.5433 27.25 20.9886 27.5488 20.4441 27.4567C18.7818 27.1757 17.0656 27.3848 15.5094 28.0698C13.6467 28.8897 12.132 30.3391 11.231 32.164C10.3299 33.9889 10.1 36.0727 10.5816 38.0501C11.0631 40.0275 12.2253 41.7723 13.8645 42.9785C15.5037 44.1848 17.5152 44.7756 19.5463 44.6472C21.5774 44.5189 23.4986 43.6797 24.9729 42.2767C26.4473 40.8738 27.3807 38.9966 27.6095 36.9743C27.8007 35.2848 27.4899 33.5841 26.7273 32.0806C26.4775 31.588 26.5978 30.9696 27.0583 30.6647L27.3381 30.4795Z" fill="black"/>
</svg>
