<svg width="40" height="40" viewBox="0 0 40 40" fill="none" xmlns="http://www.w3.org/2000/svg">
  <path d="M20 3.22181L22.6897 8.33463L23.3701 9.62794L24.6807 8.98155L29.862 6.42616L29.0328 12.1435L28.823 13.5897L30.2633 13.8371L35.957 14.8153L31.9256 18.9533L30.9058 20L31.9256 21.0467L35.957 25.1847L30.2633 26.1629L28.823 26.4103L29.0328 27.8565L29.862 33.5738L24.6807 31.0185L23.3701 30.3721L22.6897 31.6654L20 36.7782L17.3103 31.6654L16.6299 30.3721L15.3193 31.0185L10.138 33.5738L10.9672 27.8565L11.177 26.4103L9.73674 26.1629L4.04299 25.1847L8.07441 21.0467L9.09418 20L8.07441 18.9533L4.04299 14.8153L9.73674 13.8371L11.177 13.5897L10.9672 12.1435L10.138 6.42616L15.3193 8.98155L16.6299 9.62794L17.3103 8.33463L20 3.22181Z" stroke="#EFC91C" stroke-width="3" fill="currentColor"/>
</svg>
